/* XPM */
/* -copyright-
#-# 
#-# xsnow: let it snow on your desktop
#-# Copyright (C) 1984,1988,1990,1993-1995,2000-2001 Rick Jansen
#-# 	      2019,2020,2021 Willem Vermin
#-# 
#-# This program is free software: you can redistribute it and/or modify
#-# it under the terms of the GNU General Public License as published by
#-# the Free Software Foundation, either version 3 of the License, or
#-# (at your option) any later version.
#-# 
#-# This program is distributed in the hope that it will be useful,
#-# but WITHOUT ANY WARRANTY; without even the implied warranty of
#-# MERCHANTABILITY or FITNESS FOR A PARTICULAR PURPOSE.  See the
#-# GNU General Public License for more details.
#-# 
#-# You should have received a copy of the GNU General Public License
#-# along with this program.  If not, see <http://www.gnu.org/licenses/>.
#-# 
*/
XPM_TYPE *eland_xpm[] = {
/* columns rows colors chars-per-pixel */
/* had to make colums mutiple of 8, otherwise unitialised value */
/* in xpmCreatePixmapFromImage (ixpm.c:23) detected by valgrind */
"64 62 123 2 ",
"   c #0F1510",
".  c #161B15",
"X  c #1A1E17",
"o  c #1B1F18",
"O  c #1E2119",
"+  c #24241B",
"@  c #2A261C",
"#  c #272A1E",
"$  c #2C2A1E",
"%  c #32271D",
"&  c #312C1F",
"*  c #2D2C20",
"=  c #322E21",
"-  c #392E21",
";  c #363123",
":  c #3B3424",
">  c #3E3827",
",  c #3D3728",
"<  c #3D3929",
"1  c #413626",
"2  c #493726",
"3  c #423927",
"4  c #4B3A27",
"5  c #453C29",
"6  c #4A3D2A",
"7  c #47422E",
"8  c #4C422D",
"9  c #53442E",
"0  c #5A452E",
"q  c #55482F",
"w  c #4D4731",
"e  c #544731",
"r  c #5A4631",
"t  c #554B33",
"y  c #5C4B32",
"u  c #565133",
"i  c #5B5136",
"p  c #575038",
"a  c #5D543A",
"s  c #624E33",
"d  c #645135",
"f  c #6A5436",
"g  c #64543A",
"h  c #6B5638",
"j  c #655A3E",
"k  c #6D5A3A",
"l  c #705437",
"z  c #735C3B",
"x  c #795D3C",
"c  c #76613E",
"v  c #7C623E",
"b  c #665C40",
"n  c #6C6243",
"m  c #736746",
"M  c #7C6441",
"N  c #756A47",
"B  c #796946",
"V  c #726748",
"C  c #756948",
"Z  c #796B4A",
"A  c #7E704C",
"S  c #82653F",
"D  c #826641",
"F  c #896641",
"G  c #856B43",
"H  c #8A6D44",
"J  c #8B6F48",
"K  c #906F44",
"L  c #8E7146",
"P  c #84744F",
"I  c #8D724A",
"U  c #937346",
"Y  c #997546",
"T  c #987847",
"R  c #947549",
"E  c #9A764A",
"W  c #977849",
"Q  c #9C7B4B",
"!  c #8B7B53",
"~  c #917F56",
"^  c #917F58",
"/  c #A17D4C",
"(  c #948357",
")  c #948259",
"_  c #99865B",
"`  c #9D8A5E",
"'  c #A4814D",
"]  c #AB854F",
"[  c #AB8551",
"{  c #AE8851",
"}  c #A08B5F",
"|  c #B38B53",
" . c #BB9155",
".. c #BA9258",
"X. c #A38E62",
"o. c #A69163",
"O. c #AB9464",
"+. c #AF9867",
"@. c #B09765",
"#. c #B39B6A",
"$. c #B99F6B",
"%. c #BCA36E",
"&. c #C59857",
"*. c #C29658",
"=. c #C69A59",
"-. c #C99B5B",
";. c #C3A773",
":. c #C5AB74",
">. c #CBAE77",
",. c #CCAF78",
"<. c #CDB277",
"1. c #CFB279",
"2. c #D2B57C",
"3. c #D7B97F",
"4. c #DCBE82",
"5. c #DEC084",
"6. c #E5C486",
"7. c #E7C688",
"8. c #E8C789",
"9. c #EBC989",
"0. c #F3CE8E",
"q. c #F6D090",
"ww c None",
/* pixels */
"wwwwwwwwwwwwwwwwwwwwwwwwwwwwwwwwwwwwwwwwwwwwwwwwwwwwwwwwwwwwwwwwwwwwwwwwwwwwwwwwwwwwwwwwwwwwwwwwwwwwwwwwwwwwwwwwwwwwwwwwwwwwwwww",
"wwwwwwwwwwwwwwwwwwwwwwwwwwwwwwwwwwwwwwwwwwwwwwwwww) wwwwwwwwww_ wwwwB wwwwwwwwwwwwwwwwwwwwwwwwwwwwwwwwwwwwwwwwwwwwwwwwwwwwwwwwww",
"wwwwwwwwwwwwwwwwwwwwwwwwwwwwwwwwwwwwwwwwwwwwwwwwww:.wwwwwwwwwwwwwwww) wwwwwwwwwwwwwwwwwwwwwwwwwwwwwwwwwwwwwwwwwwwwwwwwwwwwwwwwww",
"wwwwwwwwwwwwwwwwwwwwwwwwwwwwwwwwwwwwwwwwwwwwwwwwww$.wwwwwwww@.wwwwn wwwwwwwwwwwwwwwwwwwwwwwwwwwwwwwwwwwwwwwwwwwwwwwwwwwwwwwwwwww",
"wwwwwwwwwwwwwwwwwwwwwwwwwwwwwwwwwwwwwwwwwwwwwwwwwwX.wwwwwwww} wwwwC wwwwwwwwwwwwwwwwwwwwwwwwwwwwwwwwwwwwwwwwwwwwwwwwwwwwwwwwwwww",
"wwwwwwwwwwwwwwwwwwwwwwwwwwwwwwwwwwwwwwwwwwwwwwwwww) wwwwww+.< ww) a V 5 wwwwwwwwwwwwwwwwwwwwwwwwwwwwwwwwwwwwwwwwwwwwwwwwwwwwwwww",
"wwwwwwwwwwwwwwwwww` wwj ( #.2.q.q.9.+.. wwwwwwwwww_ wwwwww< %.:.; # b wwwwwwwwwwwwwwwwwwwwwwwwwwwwwwwwwwwwwwwwwwwwwwwwwwwwwwwwww",
"wwwwwwwwwwww! wwwwo.wwZ 1.} 0.0.9.9.;._ wwwwa wwww! b ) ^ 7 w * 5 O wwwwwwwwwwwwwwwwwwwwwwwwwwwwwwwwwwwwwwwwwwwwwwwwwwwwwwwwwwww",
"wwwwww! wwww) ! wwO.>.) ` j o._ 5.%.o.8 wwwwp wwwwC P V < * < ; < wwwwwwwwwwwwwwwwwwwwwwwwwwwwwwwwwwwwwwwwwwwwwwwwwwwwwwwwwwwwww",
"wwwwwwww` wwwwo.6.4.8.7.i C ( } A V ( W D wwg ww) g < g 7 + * wwwwwwwwwwwwwwwwwwwwwwwwwwwwwwwwwwwwwwwwwwwwwwwwwwwwwwwwwwwwwwwwww",
"wwwwP @.a a Z %.:.6.4.1.7 * o.<.wwwwP 9 R wwP C n # < 5 O wwwwwwwwwwwwwwwwwwwwwwwwwwwwwwwwwwwwwwwwwwwwwwwwwwwwwwwwwwwwwwwwwwwwww",
"wwwwww) wwj %.>.4.0.2.O.: & 7 3.C n t d v wwV t ; # + wwwwwwwwwwwwwwwwwwwwwwwwwwwwwwwwwwwwwwwwwwwwwwwwwwwwwwwwwwwwwwwwwwwwwwwwww",
"wwwwww7 C P t 1.>.3.7._ wwi 8 t ! j i f k 7 5 # * wwwwwwwwwwwwwwwwwwwwwwwwwwwwwwwwwwwwwwwwwwwwwwwwwwwwwwwwwwwwwwwwwwwwwwwwwwwwww",
"wwwwwwwwww* * p o.3.;.#.i 8 d 9 + 5 7 ! a 7 # wwwwwwwwwwwwwwwwwwwwwwwwwwwwwwwwwwwwwwwwwwwwwwwwwwwwwwwwwwwwwwwwwwwwwwwwwwwwwwwwww",
"wwwwwwwwwwwwwwwwww  $ i o.# + + v + o + O + wwwwwwwwwwwwwwwwwwwwwwwwwwwwwwwwwwwwwwwwwwwwwwwwwwwwwwwwwwwwwwwwwwwwwwwwwwwwwwwwwwww",
"wwwwwwwwwwwwwwwwwwwwww+ @ , 5 @ = $ : = + # $ wwwwwwwwwwwwwwwwwwwwwwwwwwwwwwwwwwwwwwwwwwwwwwwwwwwwwwwwwwwwwwwwwwwwwwwwwwwwwwwwww",
"wwwwwwwwwwwws 0 y y 0 z z g - 6 + # 1 $ $ $ + @ O @ $ X wwwwwwwwwwwwwwwwwwwwwwwwwwwwwwwwwwwwwwwwwwwwwwwwwwwwwwwwwwwwwwwwwwwwwwww",
"wwwwwwww1 r R z s k x k : h f = @ + $ + & O & - * : # 3 : + # wwwwwwwwwwwwwwwwwwwwwwwwwwwwwwwwwwwwwwwwwwwwwwwwwwwwwwwwwwwwwwwwww",
"wwwwww= d M x s l M x s g y 3 - * # + # % - ; @ , : = 6 9 y 6 - # wwwwwwwwwwwwwwwwwwwwwwwwwwwwwwwwwwwwwwwwwwwwwwwwwwwwwwwwwwwwww",
"wwwwww@ M M H v 6 8 z k y 6 6 = 6 + & - @ $ $ + : 5 + 2 e 3 y 6 $ # wwwwwwwwwwwwwwwwwwwwwwwwwwwwwwwwwwwwwwwwwwwwwwwwwwwwwwwwwwww",
"wwwwww: z f K 5 H x d h ; ; 1 6 : = 2 % : 3 : 8 + 2 t k 9 6 y d g : 0 - wwwwwwwwwwwwwwwwwwwwwwwwwwwwwwwwwwwwwwwwwwwwwwwwwwwwwwww",
"wwww= : [ - G 9 d s $ 9 7 1 5 : - * : @ 5 , @ & ; & : 9 h i y 5 9 4 = - 1 - 5 3 3 - : - 4 y x h r y 7 wwwwwwwwwwwwwwwwwwwwwwwwww",
"wwww= : k 1 , 6 9 6 = $ @ $ + @ @ @ @ ; $ = 4 ; : 3 d 5 d f M G s k x z z 0 k b h e d 6 1 y x Q G H D r s wwwwwwwwwwwwwwwwwwwwww",
"wwwwwwwwwwwwwwwwww# y 2 + + O = + = O @ * & - y 3 9 d L k x D W c x x H E 0 d x M d x 9 : v M Q I Y U M M y y wwwwwwwwwwwwwwwwww",
"wwwwwwwwwwwwwwwwww+ 9 D * o @ @ * * & , O 8 ; O 7 z v q y x S L M z I D G M 3 = d 3 5 y g z H x G H v H R M : wwwwwwwwwwwwwwwwww",
"wwwwwwwwwwwwwwwwwwwwX : o O * + + + X : O o X + : = $ d L L H L f L G D S M D 5 o o X + : 3 k s 6 d M G I y 5 wwwwwwwwwwwwwwwwww",
"wwwwwwwwwwwwwwwwwwwwwwww+ O + O O O O O O O O O + # 5 R ] D L v h G E J I D h h * o O O o = e f M v Q R R h 6 wwwwwwwwwwwwwwwwww",
"wwwwwwwwwwwwwwwwwwwwwwwwO O O O O O O O O O O O O O y H G M Q r M Q M G G S d h f O o O o = k / h Q D I Q M + wwwwwwwwwwwwwwwwww",
"wwwwwwwwwwwwwwwwwwwwwwwwO O wwwwO O O O O O O O O + v m G z v c z H J R I J G D D 8 o O O * v z G H D L D c # d wwwwwwwwwwwwwwww",
"wwwwwwwwwwwwwwwwwwwwwwwwO O wwwwO O O O O O O O O X 1 W L x c h 5 z G R G n v H G s - O O @ y h H D G v M M = f wwwwwwwwwwwwwwww",
"wwwwwwwwwwwwwwwwwwwwwwwwwwwwwwwwwwwwO O O O O O O O o 3 U G D G e 6 G Q M l h G g x , O O * 4 r Q D D D v M 5 M wwwwwwwwwwwwwwww",
"wwwwwwwwwwwwwwwwwwwwwwwwwwwwwwwwwwwwO O O O O O O O O + s v W v z : 6 M D x f v d y - X O ; 9 d D z k G z H 8 wwwwwwwwwwwwwwwwww",
"wwwwwwwwwwwwwwwwwwwwwwwwwwwwwwwwwwwwO O O O O O O O O + d Q G D y , # y 9 y s y < 4 o O ; d x h 2 h x s d z 3 wwwwwwwwwwwwwwwwww",
"wwwwwwwwwwwwwwwwwwwwwwwwwwwwwwwwwwwwwwO O O O O O O O O * y G v 2 O + 8 $ + 4 $ 8 + O X t G f f 3 : y & 5 f e wwwwwwwwwwwwwwwwww",
"wwwwwwwwwwwwwwwwwwwwwwwwwwwwwwwwwwwwwwwwO O O O O O O O O O * @ 1 5 O O O + : O + O O X 5 X O : 9 # : 6 = s s wwwwwwwwwwwwwwwwww",
"wwwwwwwwwwwwwwwwwwwwwwwwwwwwwwwwwwwwwwwwO O O O O O O $ + : x X * = O O O O + O O O O O X + + X : 3 5 # 5 & y wwwwwwwwwwwwwwwwww",
"wwwwwwwwwwwwwwwwwwwwwwwwwwwwwwwwwwwwwwwwwwO O O + o O 3 t [ D O o O O O O O + O O O O O O $ & o wwy 8 : 1 , G wwwwwwwwwwwwwwwwww",
"wwwwwwwwwwwwwwwwwwwwwwwwwwwwwwwwwwwwwwwwwwwwO O o o O O e Q x # o + O O O O O O O O O O O $ d # wwwwD : 1 c R Q wwwwwwwwwwwwwwww",
"wwwwwwwwwwwwwwwwwwwwwwwwwwwwwwwwwwwwwwwwwwww@ @ O + O O & F 9 o + o O O O O O O O O O O + = z @ wwwwwwv r h H [ wwwwwwwwwwwwwwww",
"wwwwwwwwwwwwwwwwwwwwwwwwwwwwwwwwwwwwwwwwwwww: 2 $ 6 O wwwwk 9 X o + O O O O O O wwwwwwo , e H wwwwwwwwwwy 1 W | v wwwwwwwwwwwwww",
"wwwwwwwwwwwwwwwwwwwwwwwwwwwwwwwwwwwwwwwwwwwwww0 $ 9 > wwww= x X X e wwwwwwwwwwwwwwwwwwX a v M wwwwwwwwwwy ; 6 T v wwwwwwwwwwwwww",
"wwwwwwwwwwwwwwwwwwwwwwwwwwwwwwwwwwwwwwwwwwwwwws 2 0 d wwwwwws ; X 1 wwwwwwwwwwwwwwwwwwX k h f wwwwwwwwwwwwH z Q H z wwwwwwwwwwww",
"wwwwwwwwwwwwwwwwwwwwwwwwwwwwwwwwwwwwwwwwwwwwww- s m x wwwwww5 5 # 6 wwwwwwwwwwwwwwwwwwX 9 x y wwwwwwwwwwwwww| [ ] [ x wwwwwwwwww",
"wwwwwwwwwwwwwwwwwwwwwwwwwwwwwwwwwwwwwwwwwwwwww# y J x wwwwwwwwy f f wwwwwwwwwwwwwwwwwwww6 G z wwwwwwwwwwwwwwww| ' ' T wwwwwwwwww",
"wwwwwwwwwwwwwwwwwwwwwwwwwwwwwwwwwwwwwwwwwwwwwwwwS E v wwwwwwwwL ' W wwwwwwwwwwwwwwwwwwwwe G x wwwwwwwwwwwwwwwwi ' ' U wwwwwwwwww",
"wwwwwwwwwwwwwwwwwwwwwwwwwwwwwwwwwwwwwwwwwwwwwwwwl / h wwwwwwwwG ] W wwwwwwwwwwwwwwwwwwww8 S G c wwwwwwwwwwwwwwwwM  .] wwwwwwwwww",
"wwwwwwwwwwwwwwwwwwwwwwwwwwwwwwwwwwwwwwwwwwwwwwwwS E wwwwwwwwwwD ..| wwwwwwwwwwwwwwwwwwwwy U Q wwwwwwwwwwwwwwwwwwd ' | wwwwwwwwww",
"wwwwwwwwwwwwwwwwwwwwwwwwwwwwwwwwwwwwwwwwwwwwwwwwQ D wwwwwwwwwwww' =.s wwwwwwwwwwwwwwwwwwz | Y wwwwwwwwwwwwwwwwwwwwW *.wwwwwwwwww",
"wwwwwwwwwwwwwwwwwwwwwwwwwwwwwwwwwwwwwwwwwwwwww3 E S wwwwwwwwwwwwf  .y wwwwwwwwwwwwwwwwww9  .H wwwwwwwwwwwwwwwwwwwwx =.wwwwwwwwww",
"wwwwwwwwwwwwwwwwwwwwwwwwwwwwwwwwwwwwwwwwwwwwww3 Y d wwwwwwwwwwww; L d wwwwwwwwwwwwwwwwwwQ H wwwwwwwwwwwwwwwwwwwwwwww-.wwwwwwwwww",
"wwwwwwwwwwwwwwwwwwwwwwwwwwwwwwwwwwwwwwwwwwwwww- W wwwwwwwwwwwwwwwws U wwwwwwwwwwwwwwwwww| H wwwwwwwwwwwwwwwwwwwwwwww .wwwwwwwwww",
"wwwwwwwwwwwwwwwwwwwwwwwwwwwwwwwwwwwwwwwwwwwwwwwwE wwwwwwwwwwwwwwww&  .wwwwwwwwwwwwwwwwww{ wwwwwwwwwwwwwwwwwwwwwwwwwwQ Q wwwwwwww",
"wwwwwwwwwwwwwwwwwwwwwwwwwwwwwwwwwwwwwwwwwwwwwwww| wwwwwwwwwwwwwwwwww] wwwwwwwwwwwwwwwwY Q wwwwwwwwwwwwwwwwwwwwwwwwwwL / wwwwwwww",
"wwwwwwwwwwwwwwwwwwwwwwwwwwwwwwwwwwwwwwwwwwwwwwk | wwwwwwwwwwwwwwwwwwS Q wwwwwwwwwwwwww| U wwwwwwwwwwwwwwwwwwwwwwwwwwv Q wwwwwwww",
"wwwwwwwwwwwwwwwwwwwwwwwwwwwwwwwwwwwwwwwwwwwwwwS ' wwwwwwwwwwwwwwwwwwk T wwwwwwwwwwwwww .wwwwwwwwwwwwwwwwwwwwwwwwwwwwS L wwwwwwww",
"wwwwwwwwwwwwwwwwwwwwwwwwwwwwwwwwwwwwwwwwwwwwwwQ W wwwwwwwwwwwwwwwwwwww' wwwwwwwwwwww/ Q wwwwwwwwwwwwwwwwwwwwwwwwwwwwv ' wwwwwwww",
"wwwwwwwwwwwwwwwwwwwwwwwwwwwwwwwwwwwwwwwwwwwwww .c wwwwwwwwwwwwwwwwwwww] z wwwwwwwwww| L wwwwwwwwwwwwwwwwwwwwwwwwwwwwL  .wwwwwwww",
"wwwwwwwwwwwwwwwwwwwwwwwwwwwwwwwwwwwwwwwwwwwwwwU g wwwwwwwwwwwwwwwwwwwwU D wwwwwwwwG ' q wwwwwwwwwwwwwwwwwwwwwwwwwwww' &.wwwwwwww",
"wwwwwwwwwwwwwwwwwwwwwwwwwwwwwwwwwwwwwwwwwwwwT U g wwwwwwwwwwwwwwwwwwww' -.wwwwwwd -.' wwwwwwwwwwwwwwwwwwwwwwwwwwwwww| S , wwwwww",
"wwwwwwwwwwwwwwwwwwwwwwwwwwwwwwwwwwwwwwwwwwS  .' u wwwwwwwwwwwwwwwwwwh  .G # ww; { T h wwwwwwwwwwwwwwwwwwwwwwwwwwwwd v c wwwwwwww",
"wwwwwwwwwwwwwwwwwwwwwwwwwwwwwwwwwwwwwwww5 { k 9 wwwwwwwwwwwwwwwwww+ k k wwww7 7 q k wwwwwwwwwwwwwwwwwwwwwwwwwwww= + . wwwwwwwwww",
"wwwwwwwwwwwwwwwwwwwwwwwwwwwwwwwwwwwwwwO + 7 = wwwwwwwwwwwwwwwwwwww8 + + wwwwwwwwwwwwwwwwwwwwwwwwwwwwwwwwwwwwwwwwwwwwwwwwwwwwwwww"
};
