/* XPM */
/* -copyright-
#-# 
#-# xsnow: let it snow on your desktop
#-# Copyright (C) 1984,1988,1990,1993-1995,2000-2001 Rick Jansen
#-# 	      2019,2020,2021 Willem Vermin
#-# 
#-# This program is free software: you can redistribute it and/or modify
#-# it under the terms of the GNU General Public License as published by
#-# the Free Software Foundation, either version 3 of the License, or
#-# (at your option) any later version.
#-# 
#-# This program is distributed in the hope that it will be useful,
#-# but WITHOUT ANY WARRANTY; without even the implied warranty of
#-# MERCHANTABILITY or FITNESS FOR A PARTICULAR PURPOSE.  See the
#-# GNU General Public License for more details.
#-# 
#-# You should have received a copy of the GNU General Public License
#-# along with this program.  If not, see <http://www.gnu.org/licenses/>.
#-# 
*/
XPM_TYPE *huis4_xpm[] = {
/* columns rows colors chars-per-pixel */
"80 64 169 2 ",
"   c #666666",
".  c #686867",
"X  c #61656A",
"o  c #6A6A6A",
"O  c #696665",
"+  c #746663",
"@  c #6E6F71",
"#  c #666B70",
"$  c #6D7073",
"%  c #727375",
"&  c #757679",
"*  c #7A7B7D",
"=  c #77797B",
"-  c #B15830",
";  c #BB5C34",
":  c #B7653D",
">  c #BC663E",
",  c #CD5B08",
"<  c #E75E09",
"1  c #FF5F05",
"2  c #C0630D",
"3  c #FF6307",
"4  c #FF6309",
"5  c #F3690A",
"6  c #E6641C",
"7  c #F06517",
"8  c #C25E29",
"9  c #C15F33",
"0  c #C4632F",
"q  c #CB622E",
"w  c #DF6420",
"e  c #D8662A",
"r  c #C36330",
"t  c #CC6633",
"y  c #CC6836",
"u  c #C2683C",
"i  c #CA6B3B",
"p  c #D16630",
"a  c #DB6F35",
"s  c #E26420",
"d  c #EF7A37",
"f  c #EE7733",
"g  c #926553",
"h  c #A96648",
"j  c #BE6840",
"k  c #A76D54",
"l  c #A66E55",
"z  c #8F756C",
"x  c #94786D",
"c  c #897A76",
"v  c #877A79",
"b  c #B27F6D",
"n  c #CC6F41",
"m  c #CC754B",
"M  c #CD7042",
"N  c #C17857",
"B  c #CC7B54",
"V  c #CB7E59",
"C  c #FE952D",
"Z  c #EEB33C",
"A  c #95827D",
"S  c #BF8E6A",
"D  c #D88155",
"F  c #E7844D",
"G  c #E68B58",
"H  c #CB8666",
"J  c #C9876A",
"K  c #C98A6D",
"L  c #CA946F",
"P  c #DD9A78",
"I  c #E29369",
"U  c #E09770",
"Y  c #757D82",
"T  c #787D83",
"R  c #7E8184",
"E  c #788391",
"W  c #838383",
"Q  c #83868A",
"!  c #868A8F",
"~  c #8A8D92",
"^  c #878F99",
"/  c #8E9196",
"(  c #8D9299",
")  c #919397",
"_  c #B7958C",
"`  c #AD9D9B",
"'  c #8F98A4",
"]  c #959AA2",
"[  c #989DA3",
"{  c #979FAA",
"}  c #9DA2AC",
"|  c #9CA0A6",
" . c #9FA6B1",
".. c #A1A5AB",
"X. c #A3AAB4",
"o. c #A8AEB4",
"O. c #A7AEB8",
"+. c #A9AFB8",
"@. c #ACB3BC",
"#. c #C99783",
"$. c #C79B88",
"%. c #C99F8E",
"&. c #C9A08F",
"*. c #CEAC89",
"=. c #D2AF8A",
"-. c #D2B08B",
";. c #DDB88D",
":. c #CAA293",
">. c #C0A798",
",. c #CAA79A",
"<. c #CAA99D",
"1. c #C0A390",
"2. c #D6BE99",
"3. c #CAADA3",
"4. c #C4ACA6",
"5. c #C5B4AC",
"6. c #CBB5AF",
"7. c #C4B7B7",
"8. c #C5BCB5",
"9. c #C4BABA",
"0. c #CABBBA",
"q. c #CDB6B0",
"w. c #E1C69B",
"e. c #E1C89D",
"r. c #C7C2BE",
"t. c #ECE1B5",
"y. c #F4E7B6",
"u. c #F5E8B6",
"i. c #F8EBBA",
"p. c #AFB7C0",
"a. c #B3BAC5",
"s. c #B6BECA",
"d. c #B8BEC8",
"f. c #B1B7C1",
"g. c #CABFC0",
"h. c #BCC3CC",
"j. c #B7C0CC",
"k. c #BDC5D1",
"l. c #BCC9D7",
"z. c #C8C3C3",
"x. c #C7C4C8",
"c. c #C1C7D2",
"v. c #C4CBD5",
"b. c #C5CED9",
"n. c #C9CFD9",
"m. c #CECFD5",
"M. c #CDD3DD",
"N. c #D0D6DF",
"B. c #D1D8DF",
"V. c #E4EBC7",
"C. c #E8EDC6",
"Z. c #EDF2C9",
"A. c #F3F6CB",
"S. c #F6F9CB",
"D. c #FFFFCD",
"F. c #EEF4D3",
"G. c #FFFFD2",
"H. c #CED6E0",
"J. c #CFD8E3",
"K. c #D0D7E1",
"L. c #D4DAE3",
"P. c #D9DEE6",
"I. c #D9DFE8",
"U. c #DDE0E4",
"Y. c #DAE1E9",
"T. c #E5E6E6",
"R. c #E8E7E7",
"E. c #E0E6EF",
"W. c None",
/* pixels */
"W.W.W.W.W.W.W.W.W.W.W.W.W.W.W.W.W.W.W.W.W.W.W.W.W.W.W.W.W.W.W.W.W.W.W.W.W.W.W.W.W.W.W.W.W.W.W.W.W.W.W.W.W.W.W.W.W.W.W.W.W.W.W.W.W.W.W.W.W.W.W.W.W.W.W.W.W.W.W.W.",
"W.W.W.W.W.W.W.W.W.W.W.W.W.W.W.W.W.W.W.W.W.W.W.W.W.W.W.W.W.W.W.W.W.W.W.W.W.W.W.W.W.W.W.W.W.W.W.W.W.W.W.W.W.W.B.M.B.U.B.T.n.W.W.W.W.W.W.W.W.W.W.W.W.W.W.W.W.W.W.W.",
"W.W.W.W.W.W.W.W.W.W.W.W.W.W.W.W.W.W.W.W.W.W.W.W.W.W.W.W.W.W.W.W.W.W.W.W.W.W.W.W.W.W.W.W.W.W.W.W.W.W.W.W.W.T.R.R.R.R.R.R.T.W.W.W.W.W.W.W.W.W.W.W.W.W.W.W.W.W.W.W.",
"W.W.W.W.W.W.W.W.W.W.W.W.W.W.W.W.W.W.W.W.W.W.W.W.W.W.W.W.W.W.W.W.W.W.W.W.W.W.W.W.W.W.W.W.W.W.W.W.W.W.W.W.l.U.T.T.R.T.T.P.L.W.W.W.W.W.W.W.W.W.W.W.W.W.W.W.W.W.W.W.",
"W.W.W.W.W.W.W.W.W.W.W.W.W.W.W.W.W.W.W.W.W.W.W.W.W.W.W.W.W.W.W.W.W.W.W.W.W.L.P.P.W.W.W.W.W.W.W.W.W.W.W.W.W.L.T.T.T.R.T.T.W.W.W.W.W.W.W.W.W.W.W.W.W.W.W.W.W.W.W.W.",
"W.W.W.W.W.W.W.W.W.W.W.W.W.W.W.W.W.W.W.W.W.W.W.W.W.W.W.W.W.W.W.W.W.W.W.L.L.M.M.M.M.M.L.W.W.W.W.W.W.W.W.W.W.W.W.v.N.M.W.W.W.W.W.W.W.W.W.W.W.W.W.W.W.W.W.W.W.W.W.W.",
"W.W.W.W.W.W.W.W.W.W.W.W.W.W.W.W.W.W.W.W.W.W.W.W.W.W.W.W.W.W.W.W.W.P.M.N.M.M.v.h.v.M.H.M.L.P.W.W.W.W.W.W.W.W.W.W.W.W.W.W.W.W.W.W.W.W.W.W.W.W.W.W.W.W.W.W.W.W.W.W.",
"W.W.W.W.W.W.W.W.W.W.W.W.W.W.W.W.W.W.W.W.W.W.W.W.W.W.W.W.W.W.W.W.H.H.M.M.L.b.@.[ o.v.b.M.M.L.L.W.W.W.W.W.W.W.W.W.W.W.W.W.W.W.W.W.W.W.W.W.W.W.W.W.W.W.W.W.W.W.W.W.",
"W.W.W.W.W.W.W.W.W.W.W.W.W.W.W.W.W.W.W.W.W.W.W.W.W.W.W.W.W.L.L.K.M.M.M.L.E Q * o & / ( P.N.M.L.B.W.W.W.W.y y t } W.W.W.W.W.W.W.W.W.W.W.W.W.W.W.W.W.W.W.W.W.W.W.W.",
"W.W.W.W.W.W.W.W.W.W.W.W.W.W.W.W.W.W.W.W.W.W.W.W.W.W.W.W.L.L.K.K.M.b.M.X.%           T ^ h.M.M.M.W.W.W.W.t t t c W.W.W.W.W.W.W.W.W.W.W.W.W.W.W.W.W.W.W.W.W.W.W.W.",
"W.W.W.W.W.W.W.W.W.W.W.W.W.W.W.W.W.W.W.W.W.W.W.W.W.W.W.P.M.M.n.M.K.j.( .       .     O o E d.M.M.L.W.W.W.t t t v W.W.W.W.W.W.W.W.W.W.W.W.W.W.W.W.W.W.W.W.W.W.W.W.",
"W.W.W.W.W.W.W.W.W.W.W.W.W.W.W.W.W.W.W.W.W.W.W.W.W.P.L.M.M.M.K.K.a.o               O       % ( M.K.K.W.b q t t z W.W.W.W.W.W.W.W.W.W.W.W.W.W.W.W.W.W.W.W.W.W.W.W.",
"W.W.W.W.W.W.W.W.W.W.W.W.W.W.W.W.W.W.W.W.W.W.W.W.L.L.M.K.n.M.n.f./                           & [ v.L.M._ i p p x W.W.W.W.W.W.W.W.W.W.W.W.W.W.W.W.W.W.W.W.W.W.W.W.",
"W.W.W.W.W.W.W.W.W.W.W.W.W.W.W.W.W.W.W.W.W.W.W.L.L.K.W.M.M.v.o.Q O                             % ~ j.L.q.i t y z W.W.W.W.W.W.W.W.W.W.W.W.W.W.W.W.W.W.W.W.W.W.W.W.",
"W.W.W.W.W.W.W.W.W.W.W.W.W.W.W.W.W.W.W.W.W.P.L.M.M.M.L.M.k.] .                                   + ) a.o.m q t z W.W.W.W.W.W.W.W.W.W.W.W.W.W.W.W.W.W.W.W.W.W.W.W.",
"W.W.W.W.W.W.W.W.W.W.W.W.W.W.W.W.W.W.W.W.W.L.B.M.M.M.L.X.!                                       . O ! + > t t z W.W.W.W.W.W.W.W.W.W.W.W.W.W.W.W.W.W.W.W.W.W.W.W.",
"W.W.W.W.W.W.W.W.W.W.W.W.W.W.W.W.W.W.W.I.L.L.W.M.M.v.o.%           .                             .       + h p A o.W.W.W.W.W.W.W.W.W.W.W.W.W.W.W.W.W.W.W.W.W.W.W.",
"W.W.W.W.W.W.W.W.W.W.W.W.W.W.W.W.W.W.B.L.L.B.N.M.h.( % O                         .               .         O g ` v.I.W.W.W.W.W.W.W.W.W.W.W.W.W.W.W.W.W.W.W.W.W.W.",
"W.W.W.W.W.W.W.W.W.W.W.W.W.W.W.W.W.L.L.M.N.K.M.j.( .                                                           { v.M.H.L.W.W.W.W.W.W.W.W.W.W.W.W.W.W.W.W.W.W.W.W.",
"W.W.W.W.W.W.W.W.W.W.W.W.W.W.W.W.P.M.M.K.N.M.O.~       .                                 .                     . ( v.M.B.L.L.P.W.W.W.W.W.W.W.W.W.W.W.W.W.W.W.W.W.",
"W.W.W.W.W.W.W.W.W.W.W.W.W.W.I.L.M.M.M.J.c.} O                                                                   o Q X.K.K.N.L.L.W.W.W.W.W.W.W.W.W.W.W.W.W.W.W.W.",
"W.W.W.W.W.W.W.W.W.W.W.W.W.L.N.N.B.M.L.f.! %                                         .                               @ @.K.K.M.K.L.W.W.W.W.W.W.W.W.W.W.W.W.W.W.W.",
"W.W.W.W.W.W.W.W.W.W.W.W.I.L.B.N.L.Y.' O .                   .     .                 X                               . & O.M.L.M.K.W.W.W.W.W.W.W.W.W.W.W.W.W.W.W.",
"W.W.W.W.W.W.W.W.W.W.Y.L.K.K.M.K.b.] =                                                       .                           o W s.K.M.M.P.P.W.W.W.W.W.W.W.W.W.W.W.W.",
"W.W.W.W.W.W.W.W.W.L.K.L.K.M.M.@.!                                             .                                             & p.M.M.M.L.L.W.W.W.W.W.W.W.W.W.W.W.",
"W.W.W.W.W.W.W.W.P.L.L.W.N.H.@.T                                                                                             @ = s.n.M.M.L.W.W.W.W.W.W.W.W.W.W.W.",
"W.W.W.W.W.W.W.I.B.N.L.P.H.k.$ o                                                 .                                               Q } f.P.B.P.P.W.W.W.W.W.W.W.W.W.",
"W.W.W.W.W.W.W.L.L.L.P.s.] & .                                       .                                                             @ / k.Y.M.M.L.P.W.W.W.W.W.W.W.",
"W.W.W.W.W.W.W.L.W.N.c.~ o                                           .                                                             O o ~ ] L.M.K.L.P.W.W.W.W.W.W.",
"W.W.W.W.W.W.W.I.K...W o .                                           X   .                                                               R ..v.K.N.W.W.W.W.W.W.W.",
"W.W.W.W.W.W.W.n.@.T X X X X X X X X X X X X X X X X X X X X X X X X X X X X X X X X X X X X X X X X X X X X X X X X X X X X X X X X X X # $ ^ k.L.K.W.W.W.W.W.W.",
"W.W.W.W.W.W.I.L...* T T Y Y Y Y Y Y Y Y Y Y Y Y Y Y Y Y Y Y Y Y Y Y Y Y Y Y Y Y Y Y Y Y Y Y Y Y Y Y Y Y Y Y Y Y Y Y Y Y Y Y Y Y Y Y Y T T T W ..h.L.W.W.W.W.W.W.",
"W.W.W.W.W.W.L.P.W.W.W.j t t t y t t y t t t t t t t t y y y t t y t t t y t t y y y t t t t t t t t t t t t t t r y t t t t t y t y t k W.W.W.W.W.W.W.W.W.W.W.W.",
"W.W.W.W.W.W.W.W.W.W.W.j t t t t t t t t t t t t t t t t t t t t t t t t t t t t t t t t t t t t t t t t t t t t t y t t t t t t t t q k W W.W.W.W.W.W.W.W.W.W.W.",
"W.W.W.W.W.W.W.W.W.W.W.j t t t t t t t t t t t t t t t t t t t t t t t t t t t t t t t t t t t y t t t t t t t t t t t t t t t t t t p k W W.W.W.W.W.W.W.W.W.W.W.",
"W.W.W.W.W.W.W.W.W.W.W.j t t t t t t t t t t t t t t t t t t t t t t t t t t t t p t t t t t t t t t t t t t t t t t t t t t t t t t p k W W.W.W.W.W.W.W.W.W.W.W.",
"W.W.W.W.W.W.W.W.W.W.W.: 0 r r r ; r r r r r r r r r r r r r r r 0 0 0 9 9 r r r 0 r r r r r r 0 > 8 r r r r 0 r r r r r 9 r r r 0 0 0 k W W.W.W.W.W.W.W.W.W.W.W.",
"W.W.W.W.W.W.W.W.W.W.W.n t t t t y t t t t t t t t t t t t t t t t t t t t t t t t t t t t t t t t t t t t t t t t t t t y t t t t t p k W W.W.W.W.W.W.W.W.W.W.W.",
"W.W.W.W.W.W.W.W.W.W.W.j t t t t t t t t t t t t t t t t t t t t t t t y t t t t t t t t t t t t y t t t y y t y t t t t t t t t t t p k W W.W.W.W.W.W.W.W.W.W.W.",
"W.W.W.W.W.W.W.W.W.W.W.j t t t t t t t t t t t t t t t t t t t t t t t t t t t t t t t t t m H V H m B B H H m i t t t t t t t t t y p k W W.W.W.W.W.W.W.W.W.W.W.",
"W.W.W.W.W.W.W.W.W.W.W.n t t t t t t t t t t t t t t t t t t t t t t t t t t t t t t t t p J q.3.q.:.J 3.0.0.L 0 t t t t t t t t t t q k W W.W.W.W.W.W.W.W.W.W.W.",
"W.W.W.W.W.W.W.W.W.W.W.: 8 > 0 0 r r r r r r r r 0 0 r 0 r 0 r 0 r 0 r r r r r r r r r r 8 1.z.9.z.8.>.r.x.z.8.K ; r 0 0 0 0 r r 0 0 q k W W.W.W.W.W.W.W.W.W.W.W.",
"W.W.W.W.W.W.W.W.W.W.W.j t t t t t t t t t t t y n m i V y m n V i B y y t t t t t t t t 8 -.F.C.A.D.D.S.S.Z.D.i.; t t t t t t t t t p k W W.W.W.W.W.W.W.W.W.W.W.",
"W.W.W.W.W.W.W.W.W.W.W.j t t t t t t t t t t y i #.,.%.<.:.3.,.3.%.<.K i t t t t t t t t t *.S.V.S.A.S.S.S.S.S.t.; t t t t t t t t y p k W W.W.W.W.W.W.W.W.W.W.W.",
"W.W.W.W.W.W.W.W.W.W.W.j t t t t t t t t t t t n 3.0.7.0.9.g.x.z.9.0.$.i t t t t t t t t q *.A.V.A.A.A.A.A.A.A.t.; t t t t t t t t t p k W W.W.W.W.W.W.W.W.W.W.W.",
"W.W.W.W.W.W.W.W.W.W.W.j t p t t t p t t t t t t D G f P d I F U f U a y t t t t t t p t q =.D.Z.D.D.D.D.D.D.D.u.; t t t t t t t t t q k W W.W.W.W.W.W.W.W.W.W.W.",
"W.W.W.W.W.W.W.W.W.W.W.: r r r r r r r r r r r r 6 3 4 4 4 4 4 4 4 4 w r r r r r r r r r 8 *.G.Z.D.D.D.D.D.D.D.y.- 0 r r r r r r 0 0 q k W W.W.W.W.W.W.W.W.W.W.W.",
"W.W.W.W.W.W.W.W.W.W.W.n t t t t t t t t t t t t 6 4 4 4 4 4 4 4 4 4 s y t t t t t t t t q =.D.Z.D.D.D.D.D.D.D.u.; p t t t t t t y y p k W W.W.W.W.W.W.W.W.W.W.W.",
"W.W.W.W.W.W.W.W.W.W.W.j y t t t t t t t t t t t 6 3 3 3 4 4 4 4 3 3 w y t t q y t t t t q -.D.Z.D.D.D.D.D.D.D.u.; q t t t t t t t t q k W W.W.W.W.W.W.W.W.W.W.W.",
"W.W.W.W.W.W.W.W.W.W.W.: t t t t t t t t t t t t 6 3 3 3 4 4 4 4 3 3 6 t t t y y t t t t q *.D.Z.D.D.D.D.D.D.D.u.; y t t t t t t t t p k W W.W.W.W.W.W.W.W.W.W.W.",
"W.W.W.W.W.W.W.W.W.W.W.n t t t t t t t t t t t q s 3 3 3 4 4 4 4 4 3 w t t t y q t t t t q =.G.Z.D.D.D.D.D.D.D.u.; t t t t t t t y t p k W W.W.W.W.W.W.W.W.W.W.W.",
"W.W.W.W.W.W.W.W.W.W.W.: r r r 0 r r r 0 r r > 0 6 3 3 3 4 4 4 4 4 3 w 0 0 0 0 ; r r 0 0 8 *.G.Z.D.D.D.D.D.D.D.y.- 0 0 0 r r r 0 ; t q k W W.W.W.W.W.W.W.W.W.W.W.",
"W.W.W.W.W.W.W.W.W.W.W.j t t t t t t t t t t t p 6 3 4 4 4 4 4 4 4 4 w y y t t t t t t t q -.G.Z.D.D.D.D.D.D.D.i.; t t t t t t t t t p k W W.W.W.W.W.W.W.W.W.W.W.",
"W.W.W.W.W.W.W.W.W.W.W.j t t t t t t t t t t t t 6 3 4 4 4 4 4 4 4 1 w t t t t t t t t t t L w.2.w.w.w.w.w.w.w.;.> t t t t t t t t t q k W W.W.W.W.W.W.W.W.W.W.W.",
"W.W.W.W.W.W.W.W.W.W.W.j t t t t t t t t t t t t 6 3 3 4 4 4 4 , Z C w t t t t t t t t t t r i i y i i u i i i u q t t t t t t t t t t k W W.W.W.W.W.W.W.W.W.W.W.",
"W.W.W.W.W.W.W.W.W.W.W.j t t t t t t t t t t t t 6 3 3 4 4 4 4 < 2 5 s t t t t t t t t t t t y t t t t t y t t t t t t t t t t t t t p k W W.W.W.W.W.W.W.W.W.W.W.",
"W.W.W.W.W.W.W.W.W.W.W.j r r r r r r r r r r 0 0 s 3 4 4 4 4 4 4 4 4 w 9 r r r r 0 r r r r r r r r r r r r r r 0 0 0 0 0 0 r r r 0 0 0 k W W.W.W.W.W.W.W.W.W.W.W.",
"W.W.W.W.W.W.W.W.W.W.W.n t t t t t t t t t t t t 6 3 4 4 4 4 4 4 4 3 w t t t t t t t t t t t t t t t t t t t t t t t t t t t t t t t p k W W.W.W.W.W.W.W.W.W.W.W.",
"W.W.W.I.W.W.W.W.W.W.W.j t t t t t t t t t t t t 6 3 4 4 4 4 4 4 4 3 6 t t t t t t t t t t t t t t t t t t t t t t t t t t t t t t t t k W W.W.W.W.W.L.L.P.W.W.W.",
"W.Y.M.L.K.L.L.W.W.W.W.> t t t t t t t t t t t t 6 3 4 4 4 4 4 4 4 3 w y t t t t t t t t t t t t t t t t t t t t t t t t t t t t t t p k W W.W.W.W.L.H.M.P.W.W.W.",
"W.M.M.M.n.M.n.N.L.B.W.b t t t t t y t t t t t p 6 3 3 3 3 3 4 4 4 4 6 t t y t t t y t t t t y t t t t t t y t t t y t t t y t t t t t k ) W.P.W.L.M.M.M.M.L.W.W.",
"W.M.M.N.M.n.n.L.N.L.m.j u u u u u u u u u > i u e 7 7 7 7 7 7 7 7 7 e u u u u u u u u u u u u u u u u u u u u u u u u u u > u u u u u l W E.L.W.P.L.K.L.P.L.W.W.",
"W.W.M.W.W.N.W.L.W.B.W.W.c c c c c c c c c c c c c x x x x x x x z x c c c c c c c c c c c c c c c c c c c c c c c c c c c c c c c c c v ) W.W.W.L.W.W.W.W.W.W.W.",
"W.W.W.W.W.W.W.W.W.W.W.W.W.W.W.W.W.W.W.W.W.W.W.W.W.W.W.W.W.W.W.W.W.W.W.W.W.W.W.W.W.W.W.W.W.W.W.W.W.W.W.W.W.W.W.W.W.W.W.W.W.W.W.W.W.W.W.W.W.W.W.W.W.W.W.W.W.W.W.W."
};
