/* XPM */
/* -copyright-
#-# 
#-# xsnow: let it snow on your desktop
#-# Copyright (C) 1984,1988,1990,1993-1995,2000-2001 Rick Jansen
#-# 	      2019,2020,2021 Willem Vermin
#-# 
#-# This program is free software: you can redistribute it and/or modify
#-# it under the terms of the GNU General Public License as published by
#-# the Free Software Foundation, either version 3 of the License, or
#-# (at your option) any later version.
#-# 
#-# This program is distributed in the hope that it will be useful,
#-# but WITHOUT ANY WARRANTY; without even the implied warranty of
#-# MERCHANTABILITY or FITNESS FOR A PARTICULAR PURPOSE.  See the
#-# GNU General Public License for more details.
#-# 
#-# You should have received a copy of the GNU General Public License
#-# along with this program.  If not, see <http://www.gnu.org/licenses/>.
#-# 
*/
XPM_TYPE *polarbear_xpm[] = {
/* columns rows colors chars-per-pixel */
"56 36 111 2 ",
"   c #797979",
".  c gray49",
"X  c #7E7E7E",
"o  c #808080",
"O  c #818181",
"+  c gray51",
"@  c #838383",
"#  c gray53",
"$  c #888888",
"%  c #898989",
"&  c #8B8B8B",
"*  c gray55",
"=  c #8D8D8D",
"-  c gray56",
";  c #909090",
":  c gray57",
">  c #929292",
",  c #939393",
"<  c gray58",
"1  c gray59",
"2  c #979797",
"3  c #989898",
"4  c gray60",
"5  c #9A9A9A",
"6  c #9B9B9B",
"7  c gray61",
"8  c #9D9D9D",
"9  c #9F9F9F",
"0  c #A0A0A0",
"q  c gray63",
"w  c #A2A2A2",
"e  c gray64",
"r  c #A4A4A4",
"t  c #A5A5A5",
"y  c gray65",
"u  c #A7A7A7",
"i  c gray66",
"p  c #A9A9A9",
"a  c #AAAAAA",
"s  c gray67",
"d  c #ACACAC",
"f  c gray68",
"g  c #AEAEAE",
"h  c #AFAFAF",
"j  c gray69",
"k  c #B1B1B1",
"l  c #B2B2B2",
"z  c gray70",
"x  c #B4B4B4",
"c  c gray71",
"v  c #B6B6B6",
"b  c #B7B7B7",
"n  c gray72",
"m  c #B9B9B9",
"M  c gray73",
"N  c #BBBBBB",
"B  c #BCBCBC",
"V  c gray74",
"C  c gray",
"Z  c gray75",
"A  c #C0C0C0",
"S  c #C1C1C1",
"D  c gray76",
"F  c #C3C3C3",
"G  c gray77",
"H  c #C5C5C5",
"J  c #C6C6C6",
"K  c gray78",
"L  c #C8C8C8",
"P  c gray79",
"I  c #CACACA",
"U  c #CBCBCB",
"Y  c gray80",
"T  c #CDCDCD",
"R  c #CECECE",
"E  c gray81",
"W  c #D0D0D0",
"Q  c gray82",
"!  c #D2D2D2",
"~  c LightGray",
"^  c gray83",
"/  c #D5D5D5",
"(  c gray84",
")  c #D7D7D7",
"_  c #D8D8D8",
"`  c gray85",
"'  c #DADADA",
"]  c gray86",
"[  c gainsboro",
"{  c #DDDDDD",
"}  c gray87",
"|  c #DFDFDF",
" . c gray88",
".. c #E1E1E1",
"X. c #E2E2E2",
"o. c gray89",
"O. c #E4E4E4",
"+. c gray90",
"@. c #E6E6E6",
"#. c #E7E7E7",
"$. c gray91",
"%. c #E9E9E9",
"&. c #EAEAEA",
"*. c gray92",
"=. c #ECECEC",
"-. c gray93",
";. c #EEEEEE",
":. c #EFEFEF",
">. c gray94",
",. c #F1F1F1",
"<. c None",
/* pixels */
"1 @ 6 g h f j u p S Z j 0 <.<.<.<.<.<.<.<.<.<.<.<.<.<.<.<.<.<.<.<.<.<.<.<.<.<.<.<.<.<.<.<.<.<.<.<.<.<.<.<.<.<.<.",
"i t | %.&.*.P q h M :.*.X._ U B j y <.<.<.<.<.<.<.<.<.<.<.<.<.<.<.<.<.<.<.<.<.<.<.<.<.<.<.<.<.<.<.<.<.<.<.<.<.<.",
"3 Z :.;.>.:.X.M ) x -.;.:.:.:.;.&.+.} ^ L C c s r <.<.<.<.<.<.<.<.<.<.<.<.<.<.<.<.<.<.<.<.<.<.<.<.<.<.<.<.<.<.<.",
"< D :.$.f R >.-.] J :.;.;.;.;.;.;.;.:.:.:.;.=.$.O.] W J D V B G ~ |  .|  . . .} ) L c 9 <.<.<.<.<.<.<.<.<.<.<.<.",
"M %.-.&.M Y :.;.-.-.;.;.;.;.;.;.;.;.;.;.;.;.;.;.:.:.>.:.;.;.;.:.:.:.:.:.:.:.:.:.:.:.=.X.Z <.<.<.<.<.<.<.<.<.<.<.",
"o   z >.>.:.;.;.;.;.;.;.;.;.;.;.;.;.;.;.;.;.;.;.;.;.;.;.;.;.;.;.;.;.;.;.;.;.;.;.;.;.;.:.-.U 0 <.<.<.<.<.<.<.<.<.",
"# @ N ..%.;.;.;.;.;.;.;.;.;.;.;.;.:.:.;.;.;.;.;.;.;.;.;.;.;.;.;.;.;.;.;.;.;.;.;.;.;.;.;.;.:.X.B <.<.<.<.<.<.<.<.",
"<.> t l  .:.;.;.;.;.;.;.;.;.;.;.:.O._ ;.;.;.;.;.;.;.;.;.;.;.;.;.;.;.;.;.;.;.;.;.;.;.;.;.;.;.:.=.B <.<.<.<.<.<.<.",
"<.<.6 Q ;.:.;.;.;.;.;.;.;.;.;.;.-.Z / :.;.;.;.;.;.;.;.-.=.;.*.-.;.;.:.;.;.;.;.;.;.;.;.;.;.;.;.:.o.w <.<.<.<.<.<.",
"<.<.<.<.V X.:.;.;.;.;.;.;.;.;.>.^ D :.;.;.;.;.;.;.;.:...E :.T @.:.*...;.;.;.;.;.;.;.;.;.;.;.;.;.:.H <.<.<.<.<.<.",
"<.<.<.<.<.q Y =.:.;.;.;.;.;.:.| m O.*.*.;.;.;.;.;.;.:.{ J ;.H $.>.) P :.;.;.;.;.;.;.;.;.;.;.;.;.:.O.e <.<.<.<.<.",
"<.<.<.<.<.<.<.B #.:.;.;.;.:...m { :.K  .:.%.*.;.;.;.:.{ J -.H %.:.G [ :.;.-.*.;.;.;.;.;.;.;.;.;.;.:.I <.<.<.<.<.",
"<.<.<.<.<.<.<.<.h  .:.;.:.@.M ] >.{ C =.&.Z O.:.;.;.:. .I =.A %.&.A %.;.-.K ) :.;.;.;.;.;.;.;.;.;.:.+.t <.<.<.<.",
"<.<.<.<.<.<.<.<.<.r ( :.-.S ! >.$.N [ :.K U :.;.;.;.:.o.L *.S &. .H ;.:.U G =.;.;.;.;.;.;.;.;.;.;.;.;.C <.<.<.<.",
"<.<.<.<.<.<.<.<.<.<.3 P T G :.O.B ! >.R S =.;.;.;.;.;.#.F %.A *.) E ,.{ B &.;.;.;.;.;.;.;.;.;.;.;.;.:.( <.<.<.<.",
"<.<.<.<.<.<.<.<.<.<.<.& 0 ' ] m ) >.~ V %.:.;.;.;.;.;.-.D X.A *.Q ) :.S ] :.;.;.;.;.;.;.;.;.;.;.;.;.;.$.p <.<.<.",
"<.<.<.<.<.<.<.<.<.<.<.<.J j p [ ,.^ B #.:.;.;.;.;.;.;.:.I ) S &.T { ..A -.;.;.;.;.;.;.;.;.;.;.;.;.;.;.$.v <.<.<.",
"<.<.<.<.<.<.<.<.<.<.<.<.) ..C N K V @.:.;.;.;.;.;.;.;.:.m N V *.T ..T ~ :.;.;.;.;.;.;.;.;.;.;.;.;.;.;.&.S <.<.<.",
"<.<.<.<.<.<.<.<.<.<.<.<.` :.) E r  .:.;.;.;.;.;.;.;.;.:.d t V *.I { A +.;.;.;.;.;.;.;.;.;.;.;.;.;.;.:.o.s 7 <.<.",
"<.<.<.<.<.<.<.<.<.<.<.<./ :.:. .m R :.;.;.;.;.;.;.;.;.:.m 8 V *.L ^ F ;.;.;.;.;.;.;.;.;.;.;.;.;.;.;.;.*.B = <.<.",
"<.<.<.<.<.<.<.<.<.<.<.<.~ :.;.:.X.b @.;.;.;.;.;.;.;.;.>.! 4 n %.I P W >.;.;.;.;.;.;.;.;.;.;.;.;.;.;.;.%.N < <.<.",
"<.<.<.<.<.<.<.<.<.<.<.<.E :.;.:.+.J R :.;.;.;.;.;.;.;.:.` : f ' K S { :.;.;.;.;.;.;.;.;.;.;.;.;.;.;.:.) n 1 <.<.",
"<.<.<.<.<.<.<.<.<.<.<.<.U >.;.;.:.+.V *.;.;.;.;.;.;.;.:.[ 3 g Z Z C @.;.;.;.;.;.;.;.;.;.;.;.;.;.;.:.>.U a 5 <.<.",
"<.<.<.<.<.<.<.<.<.<.<.<.E >.;.;.;.:.G ` :.;.;.;.;.;.;.:.{ 2 s j c A *.;.;.;.;.;.;.;.;.;.;.;.;.:.-.} L 3 Z n <.<.",
"<.<.<.<.<.<.<.<.<.<.<.<./ :.;.;.;.:.[ D ;.;.;.;.;.;.;.:...1 q v n F ;.;.;.;.;.;.;.;.;.;.;.:.;.{ H 3 - s $.S <.<.",
"<.<.<.<.<.<.<.<.<.<.<.<.[ :.;.;.;.;.-.Z } :.;.;.;.;.;.:.O.1 * * ; F :.;.;.;.;.;.;.;.;.:.-.X.E z f n W &.+.N <.<.",
"<.<.<.<.<.<.<.<.<.<.<.e o.:.;.;.;.;.=.R D ;.;.;.;.;.;.:.X.9 <.<.O P >.;.;.;.;.;.;.;.;._ Z n v Q *.;.:.;.;.E <.<.",
"<.<.<.<.<.<.<.<.<.<.<.d $.;.;.;.;.;.=.` u } :.;.;.;.;.:.o.w <.<.<._ :.;.;.;.;.;.;.%.G x b S _ -.;.;.;.;.:.} 5 <.",
"<.<.<.<.<.<.<.<.<.<.<.k &.;.;.;.;.:.{ p O B -.;.;.;.;.;.+.u <.<.e O.:.;.;.;.;.;.-.b t Z P $.:.;.;.;.;.;.;.=.z <.",
"<.<.<.<.<.<.<.<.<.<.<.v =.;.;.;.;.:.^ u <.2 ] :.;.;.;.;.@.i <.<.v -.;.;.;.;.;.:.o.8 <.v -.:.;.;.;.;.;.;.;.*.t <.",
"<.<.<.<.<.<.<.<.<.<.<.M -.;.;.;.;.&./ t <.<.V ;.;.;.;.;.&.j <.<.Y :.;.;.;.;.;.:.) <.<.<.P ;.;.;.;.;.;.;.;.#.w . ",
"<.<.<.<.<.<.<.<.<.<.<.U :.;.;.;.:.O.N <.<.<.q o.:.;.;.;.&.z <.8 ..:.;.;.;.;.;.:.F <.<.<.< E ;.;.;.;.;.;.;.] k X ",
"<.<.<.<.<.<.<.<.<.a J %.;.;.;.;.;.{ w <.<.<.<./ :.;.;.;.%.p <.S ;.;.;.;.;.;.;.$.a <.<.<.<.j =.;.;.;.;.;.:.+.c & ",
"<.<.<.<.<.<.<.<.q ) ,.:.;.;.;.;.X.A <.<.<.<.= / :.;.;.:.U 3 V *.:.:.:.;.;.;.>.~ <.<.<.<.+ x $.:.:.:.:.:.>.%.Y 6 ",
"<.<.<.<.<.<.<.+ q k E ..@.#.#.| J i <.<.<.<.q { :.;.;.-.v 6 _ $.O.O.O.@.%.*.+.h <.<.<.<.% r )  .} { { { ] E f <.",
"<.<.<.<.<.<.<.<.q 4 $ <.s s s w 7 <.<.<.<.<., k m M m b 7 5 h p r t t i g z i <.<.<.<.<.<.% 6 <.<.<.<.<.<.<.<.<."
};
