/* XPM */
/* -copyright-
#-# 
#-# xsnow: let it snow on your desktop
#-# Copyright (C) 1984,1988,1990,1993-1995,2000-2001 Rick Jansen
#-# 	      2019,2020,2021 Willem Vermin
#-# 
#-# This program is free software: you can redistribute it and/or modify
#-# it under the terms of the GNU General Public License as published by
#-# the Free Software Foundation, either version 3 of the License, or
#-# (at your option) any later version.
#-# 
#-# This program is distributed in the hope that it will be useful,
#-# but WITHOUT ANY WARRANTY; without even the implied warranty of
#-# MERCHANTABILITY or FITNESS FOR A PARTICULAR PURPOSE.  See the
#-# GNU General Public License for more details.
#-# 
#-# You should have received a copy of the GNU General Public License
#-# along with this program.  If not, see <http://www.gnu.org/licenses/>.
#-# 
*/
XPM_TYPE *snowtree_xpm[] = {
/* columns rows colors chars-per-pixel */
"56 79 68 1 ",
"  c #15213C",
". c #6B2503",
"X c DarkGreen",
"o c #2C3C5B",
"O c #344057",
"+ c #2D405E",
"@ c #2C4364",
"# c #374866",
"$ c #3F5479",
"% c #45556A",
"& c #465879",
"* c #505D70",
"= c #536479",
"- c #475D81",
"; c #4D6488",
": c #546A89",
"> c #5D708B",
", c #566E93",
"< c #4A709C",
"1 c #5C7499",
"2 c #4C6A93",
"3 c #63738D",
"4 c #657998",
"5 c #5C7CA6",
"6 c #4D73A1",
"7 c #677EA2",
"8 c #6C819F",
"9 c #73839D",
"0 c #5B81AC",
"q c #5787BE",
"w c #6B85A9",
"e c #7389AA",
"r c #7B91AF",
"t c #6A89B2",
"y c #768EB2",
"u c #6E90BB",
"i c #7A94B9",
"p c #6E98C8",
"a c #799BC4",
"s c #78A1CF",
"d c #7CA3D1",
"f c #8495AD",
"g c #8499BA",
"h c #8DA1BE",
"j c #91A1BA",
"k c #A2ACBF",
"l c #869EC2",
"z c #8DA6C8",
"x c #94AAC9",
"c c #9DB1CF",
"v c #87A9D2",
"b c #98AED1",
"n c #8FB1D8",
"m c #9BB4D5",
"M c #A3B3CD",
"N c #A6B9D8",
"B c #B0BED8",
"V c #AEC1DD",
"C c #B4C4DE",
"Z c #AFC2E0",
"A c #B8C8E3",
"S c #BFD0E7",
"D c #C2C9D9",
"F c #C0CFE7",
"G c #C9D5E9",
"H c #D3DBEC",
"J c #D7E0ED",
"K c None",
/* pixels */
"KKKKKKKKKKKKKKKKKKKKKKKKKHKKKKKKKKKKKKKKKKKKKKKKKKKKKKKK",
"KKKKKKKKKKKKKKKKKKKKKKKKHHHKKKKKKKKKKKKKKKKKKKKKKKKKKKKK",
"KKKKKKKKKKKKKKKKKKKKKKKKHGGSFGKKKKKKKKKKKKKKKKKKKKKKKKKK",
"KKKKKKKKKKKKKKKKKKKKKKKKGNSFFGHKKKKKKKKKKKKKKKKKKKKKKKKK",
"KKKKKKKKKKKKKKKKKKKKKKKKHABAcFKKKKKKKKKKKKKKKKKKKKKKKKKK",
"KKKKKKKKKKKKKKKKKKKKKKKKKFNAFKKKKKKKKKKKKKKKKKKKKKKKKKKK",
"KKKKKKKKKKKKKKKKKKKKKKKKKAZAGBkKKKKKKKKKKKKKKKKKKKKKKKKK",
"KKKKKKKKKKKKKKKKKKKKKKKKFAFAABDKKKKKKKKKKKKKKKKKKKKKKKKK",
"KKKKKKKKKKKKKKKKKKKKKKKGBAANAGKKKKKKKKKKKKKKKKKKKKKKKKKK",
"KKKKKKKKKKKKKKKKKKKKKKKFBFNASGKKKKKKKKKKKKKKKKKKKKKKKKKK",
"KKKKKKKKKKKKKKKKKKKKKKGFFFAFFGKKKKKKKKKKKKKKKKKKKKKKKKKK",
"KKKKKKKKKKKKKKKKKKKKKKZSFAFFFGJKKKKKKKKKKKKKKKKKKKKKKKKK",
"KKKKKKKKKKKKKKKKKKKKKFNMBBAAFFKKKKKKKKFAFFFKKKKKKKKKKKKK",
"KKKKKKKKKKKKKKKKKKKKGFBbxxMBFFFKKKKKKFAAAFFFKKKKKKKKKKKK",
"KKKKKKKKKKKKKKKKKKKGFANzlfNFFFFFKKKKFABBBFFFKKKKKKKKKKKK",
"KKKKKKKKKKKKKKGKKKFCBBNxzzNcNNFASKASAVBbbZZFKKKKKKKKKKKK",
"KKKKKKKKKKKKKHFSGAANxmzbBl,XlBAANmAFAZVNNZAKKKKKKKKKKKKK",
"KKKKKKKKKKKKHGSSASAAbwyNby7XXcNNbNAFSAAFBZFKKKKKKKKKKKKK",
"KKKKKKKKKKKKGGSAAVZBbuzZNzl7XXXNbxAFAAFAZZKKKKKKKKKKKKKK",
"KKKKKKKKKKKKKSSAZNmvllXNXll.yzxxlNAAZAFAABFKKKKKKKKKKKKK",
"KKKKKKKKKKKGFAAANcbzbbXXXl7.yllgNAABBBFFAZGKKKKKKKKKKKKK",
"KKKKKKKKKKGGSAAABbmbNCMNz.a.llylbBABNzAFBFKKKKKKKKKKKKKK",
"KKKKKKKKKKKSAAAVNNNNAZBNbl7&72ylNBANzBBAAKKKKKKKKKKKKKKK",
"KKKKKKKKKKAAAACVNBXXBZNbxz77777ylZbzNBAAKKKKKKKKKKKKKKKK",
"KKKKKKKKKSSACAVNNXXXXNbxlp%,yiiigzyygNAAKKKKKKKKKKKKKKKK",
"KKKKKKKKFSFCVVVVNNx....xl7o,talllyplixZASKHKKKKKKKKKKKKK",
"KKKKKKKKSAAVNNVVVlz7...bl,#2ylllllKllgAAASAAKKKKKKKKKKKK",
"KKKKKKKKSAANxmBNNy7xKKbbxzo:ylllbbKKxzCZZBAAGKKKKKKKKKKK",
"KKKKKKKKKSSVmNNVNbKKbKmbbb&-tzlvlxly7lmVNNBAFKKKKKKKKKKK",
"KKKKKKKKSSCVVNBANbKNBxNMNbb71eyilxll7<xzbNNAFGKGKKKKKKKK",
"KKKKKKKKSSVcerVVKKNNbzNNmge-27777llxz777lbbBBFAFFKKKKKKK",
"KKKKKKKKKm8r>wMbKZbNMVVB7-o &tluy7ylbllzzNNBbBFAFFFFKKKK",
"KKKKKKKKKK3ieeNKKgrNNAAmy7rj&ulX7;,ylzxbbNBNNZAAAFSSGKKK",
"KKKKKKKKKKKKKKKKihmCbVAABBAgowXXX1glbNNbBBNNbZAZAAAAFKKK",
"KKKKKKKKKKKKMbzVVAFCbjAAAAAN3XXXX77lbxzzmNAxxBNZAXXFSKKK",
"KKKKKKKKKCCNXXXXXXCCCgmABNNBrXXXX1-,X7gxMNZKttzZXXXFSGKK",
"KKKKKKGFBMMzXzNXXXSCCNbBAmZzeX.,--,7X;xxAAAAbgx...AFFFKK",
"KKKKKHGCmbxXXXACAACNlmMAAbz4X.72-,lbX1yxNmNAAAZZAAAAFFKK",
"KKHHGGFANzz7e....NNg7yzMBigXxi.,-7l7llayNlgBZAAAAAASFKKK",
"XJHGGASCNxiw1rxc.zNzi7wrlgg...7;7...lbzllbMBBNNBZAFAFFKK",
"KKGGFCSVMMgw1cNxziggglii1,e4#+o&7bAZBmVNzlNMlglebNAGCFGK",
"KKGSFSCx9ee4ezNzzggglget,,7w@@-17cNZZBNmNNbyggl7ilBAFFGG",
"KKGSCSCg441wyghxzKgyi..wiii,@-77ezlNBABNBNNbbbxNBNbACFFF",
"KKKSCCVxg4>ieiNKKKeezz..zzngy,7iilbKKKKKKKKACBNZAAAACAKK",
"KKKKCCCczeelgMKKK9iglzx..mMxbw&7yxMNMNKKVZxNCVAAANAFFKKK",
"KKKKHMCzxglzMKKMfxxzbzcc..mbbw$-77NxebKKKZCVCAAVZASAAFKK",
"KKKKKKCffxzxZKNzNbcczifBcmCmx8XXXyi17cKKbgBbNAZZAFAAAKKK",
"KKKKKKKjMNxCKKfxxNMNgbBZNmAVz*XXg7etgKKKg7xyNANANAAFAKKK",
"KKKKKKKCKKCKKfrxxjVNMVCCAVCAc.Xwe1y77lxyei;5lZNmbVAAAKKK",
"KKKKKKKKKKKKKkhxcVVNVVGCAAAAM.#w;y,1yez37zy-aNNVNZAKKKKK",
"KKKKKKKKKKKKKKxhVCVCSVASNzVAAj,441;-fgl7elibzvKKKmAKKKKK",
"KKKKKKKKKKKKKKVCSCCCCASSCCcAANgw1:>17egNzmZNNNZKKBZKZ.KK",
"KKKKKKKKKKKKKKNNAAVASSASSANCVAASN-:3777eizbbNNKNNmZXXNZK",
"KKKKKKKKKKKKKKNCGSVVASSSASSVVASAN4&7ry77iaibNNNNNKNK.KKK",
"KKKKKKKKKKKKKKKAAAASASSAASCVASAAAB7-;71fgz>yxNNmZKKKKKKK",
"KKKKKKKKKKKKKKVAVCAASSAASAVASAASAFB7:77XX.47gNNKKKKKKKKK",
"KKKKKKKKVVKmzbhVMSSVCCVABMMCCCAABAAxgeyX.ygeMxbMKKKKKKKK",
"KKKKKKKmZVNbigivcCCXXVVAbmfeVVASNBAf:we.4tlKgxMKKKKKKKKK",
"KKKKKKKKZVVNmxhMzmVZXXVZmm94xVAFgxx4wggyyuKKKBMKKKKKKKKK",
"KKKKKKKVVVVNCCmVxnNmXXNm..r3=4gbegfet7gllvKKKKKKKKKKKKKK",
"KKKKKKKVCKVVVVbNmzbmmXXm..zw4:..zbulzllmbzKKKKKKKKKKKKKK",
"KKKKKKKCCKVmVmznnznbnnz...uti...brxbbMmmKKKKKKKKKKKKKKKK",
"KKKKKKmCKKCmmmvvvvviliewKiKKy3..xavvvvmKKKKKKKKKKKKKKKKK",
"KKKKKdvbvnmmvvdddsi84yreeeuiwo..vazduvnKKKKKKKKKKKKKKKKK",
"KKKKKKddddssddsssir8eiiwwKKiy&:4xsspsKKKKKKKKKKKKKKKKKKK",
"KKKKKKKsppppppsuairieKKw4;wwh%41baspKKKKKKKKKKKKKKKKKKKK",
"KKKKKKKKKKKdKKKKKKzhaxzi4#eyh>>>bKsKKKKKKKKKKKKKKKKKKKKK",
"KKKKKKKKKKKKKKKKKhbxzkarrerhhe*%zqqKKKKKKKKKKKKKKKKKKKKK",
"KKKKKKKKKKKKKKKjxMjxzxjhKKzzze==sKKKKKKKKKKKKKKKKKKKKKKK",
"KKKKKKKKKKKKKKiccxzhrixxKKxiw=%>tKKKKKKKKKKKKKKKKKKKKKKK",
"KKKKKKKKKKKKKKtxtgrt<<0imbx0&%1wznb0KKKKKKKKKKKKKKKKKKKK",
"KKKKKKKKKKKKKKKxhhia0tuuhe,8O=1ixgiwKKKKKKKKKKKKKKKKKKKK",
"KKKKKKKKKKKKKKKKx1Kt65KKKKKK#=4zKKKKKKKKKKKKKKKKKKKKKKKK",
"KKKKKKKKKKKKKKKKKKKKKKKKKKKK..r.VAKKKKKKKKKKKKKKKKKKKKKK",
"KKKKKKKKKKKKKKKKKKKKKKKKKKK9>..zKKKKKKKKKKKKKKKKKKKKKKKK",
"KKKKKKKKKKKKKKKKKKKKKKKKKKKKw...VKKKKKKKKKKKKKKKKKKKKKKK",
"KKKKKKKKKKKKKKKKKKKKKKKKKKKz.....KKKKKKKKKKKKKKKKKKKKKKK",
"KKKKKKKKKKKKKKKKKKKKKKKKKKKKw..xVKKKKKKKKKKKKKKKKKKKKKKK",
"KKKKKKKKKKKKKKKKKKKKKKKKKKKK9...bKKKKKKKKKKKKKKKKKKKKKKK"
};
