/* XPM */
/* -copyright-
#-# 
#-# xsnow: let it snow on your desktop
#-# Copyright (C) 1984,1988,1990,1993-1995,2000-2001 Rick Jansen
#-# 	      2019,2020 Willem Vermin
#-# 
#-# This program is free software: you can redistribute it and/or modify
#-# it under the terms of the GNU General Public License as published by
#-# the Free Software Foundation, either version 3 of the License, or
#-# (at your option) any later version.
#-# 
#-# This program is distributed in the hope that it will be useful,
#-# but WITHOUT ANY WARRANTY; without even the implied warranty of
#-# MERCHANTABILITY or FITNESS FOR A PARTICULAR PURPOSE.  See the
#-# GNU General Public License for more details.
#-# 
#-# You should have received a copy of the GNU General Public License
#-# along with this program.  If not, see <http://www.gnu.org/licenses/>.
#-# 
*/
XPM_TYPE *reindeer_xpm[] = {
/* columns rows colors chars-per-pixel */
"72 57 107 2 ",
"   c #2A3336",
".  c #2C3639",
"X  c #2F3B3D",
"o  c #303C3F",
"O  c #3B3D3A",
"+  c #483E33",
"@  c #4C4235",
"#  c #4F473C",
"$  c #50473D",
"%  c #54493D",
"&  c #323E42",
"*  c #344246",
"=  c #374549",
"-  c #38464A",
";  c #3B4A4D",
":  c #3E4E51",
">  c #3F5054",
",  c #404C4F",
"<  c #554C43",
"1  c #5A4E42",
"2  c #5B5146",
"3  c #52504D",
"4  c #5C5349",
"5  c #414C50",
"6  c #415256",
"7  c #435659",
"8  c #46595D",
"9  c #485B5F",
"0  c #505351",
"q  c #535C5C",
"w  c #5F5F5D",
"e  c #625546",
"r  c #665847",
"t  c #62564A",
"y  c #66594B",
"u  c #6B5D4D",
"i  c #6D5F51",
"p  c #6F604E",
"a  c #70614F",
"s  c #6E6051",
"d  c #746452",
"f  c #786755",
"g  c #796855",
"h  c #7D6C58",
"j  c #4A5D61",
"k  c #515F62",
"l  c #4E6165",
"z  c #526266",
"x  c #536569",
"c  c #5A6769",
"v  c #56696D",
"b  c #5B6A6D",
"n  c #5D6D71",
"m  c #5E7174",
"M  c #626563",
"N  c #606A6D",
"B  c #626E71",
"V  c #627275",
"C  c #697577",
"Z  c #647679",
"A  c #6A777A",
"S  c #66797D",
"D  c #6B7B7E",
"F  c #727B7D",
"G  c #6D7E81",
"H  c #737E82",
"J  c #6F8183",
"K  c #748285",
"L  c #798183",
"P  c #758589",
"I  c #798689",
"U  c #7D898C",
"Y  c #7F8E91",
"T  c #80898C",
"R  c #859295",
"E  c #899396",
"W  c #8A9699",
"Q  c #8E9A9C",
"!  c #919597",
"~  c #939B9D",
"^  c #929EA1",
"/  c #94A1A3",
"(  c #9CA4A5",
")  c #9AA6A9",
"_  c #9EAAAD",
"`  c #A0A5A6",
"'  c #A3ABAC",
"]  c #A8AEAF",
"[  c #ACB2B4",
"{  c #ADB6B8",
"}  c #AFB8BA",
"|  c #B0B6B7",
" . c #B1B7B9",
".. c #B4BABC",
"X. c #B9BCBC",
"o. c #B7BFC1",
"O. c #B9BFC1",
"+. c #BCC3C4",
"@. c #C1C7C9",
"#. c #C3C9CB",
"$. c #C8CDCF",
"%. c #C9CED0",
"&. c #CED4D5",
"*. c #D0D6D7",
"=. c #D4DADB",
"-. c #DCDEDE",
";. c None",
/* pixels */
";.;.;.;.;.;.;.;.;.;.;.;.;.;.;.;.;.;.;.;.;.;.;.;.;.;.;.;.;.;.;.;.;.;.;.;.;.;.;.;.;.;.;.;.;.;.;.;.;.;.;.;.;.;.;.;.;.;.;.;.;.;.;.;.;.;.;.;.;.;.;.;.",
";.;.;.;.;.;.;.;.;.;.;.;.;.;.;.;.;.;.;.;.;.;.;.;.;.;.;.;.;.;.;.;.;.;.;.;.;.;.;.;.;.;.;.;.;.;.;.;.;.;.;.;.;.;.;.;.;.;.;.;.;.;.;.;.;.;.;.;.;.;.;.;.",
";.;.;.;.;.;.;.;.;.;.;.;.;.;.;.;.;.;.;.;.;.;.;.;.;.;.;.;.;.;.;.;.;.;.;.;.;.;.;.;.;.;.;.;.;.;.;.;.;.;.;.;.;.;.;.;.;.;.;.;.;.;.;.;.;.;.;.;.;.;.;.;.",
";.;.;.;.;.;.;.;.;.;.;.;.;.;.;.;.;.;.;.;.;.;.;.;.;.;.;.;.;.;.;.;.;.;.;.;.;.;.;.;.;.;.;.;.;.;.;.;.;.;.;.;.;.;.;.;.r ;.r e ;.;.;.;.;.;.;.;.;.;.;.;.",
";.;.;.;.;.;.;.;.;.;.;.;.;.;.;.;.;.;.;.;.;.;.;.;.;.;.;.;.;.;.;.;.;.;.;.;.;.;.;.;.;.;.;.;.;.;.;.;.;.;.;.e ;.;.;.;.r ;.;.u ;.;.;.;.;.;.;.;.;.;.;.;.",
";.;.;.;.;.;.;.;.;.;.;.;.;.;.;.;.;.;.;.;.;.;.;.;.;.;.;.;.;.;.;.;.;.;.;.;.;.;.;.;.;.;.;.;.;.;.;.;.;.;.;.;.;.;.;.;.;.;.;.r 2 % ;.;.;.;.;.;.;.;.;.;.",
";.;.;.;.;.;.;.;.;.;.;.;.;.;.;.;.;.;.;.;.;.;.;.;.;.;.;.;.;.;.;.;.;.;.;.;.;.;.;.;.;.;.;.;.;.;.;.;.;.;.;.;.r ;.g ;.;.e ;.d r p u ;.;.;.;.;.;.;.;.;.",
";.;.;.;.;.;.;.;.;.;.;.;.;.;.;.;.;.;.;.;.;.;.;.;.;.;.;.;.;.;.;.;.;.;.;.;.;.;.;.;.;.;.;.;.;.;.;.;.;.;.;.;.;.s ;.h r f d u p h % ;.;.;.;.;.;.;.;.;.",
";.;.;.;.;.;.;.;.;.;.;.;.;.;.;.;.;.;.;.;.;.;.;.;.;.;.;.;.;.;.;.;.;.;.;.;.;.;.;.;.;.;.;.;.;.;.;.;.;.;.;.;.;.d p r f f d d d u ;.;.;.;.;.;.;.;.;.;.",
";.;.;.;.;.;.;.;.;.;.;.;.;.;.;.;.;.;.;.;.;.;.;.;.;.;.;.;.;.;.;.;.;.;.;.;.;.;.;.;.;.;.;.;.;.;.;.;.;.;.;.;.;.d f g d p d d d p u e ;.;.;.;.;.;.;.;.",
";.;.;.;.;.;.;.;.;.;.;.;.;.;.;.;.;.;.;.;.;.;.;.;.;.;.;.;.;.;.;.;.;.;.;.;.;.;.;.;.;.;.;.;.;.;.;.;.;.;.;.;.s d y i d a d a a a d a u ;.;.;.;.;.;.;.",
";.;.;.;.;.;.;.;.;.;.;.;.;.;.;.;.;.;.;.;.;.;.;.;.;.;.;.;.;.;.;.;.;.;.;.;.;.;.;.;.;.;.;.;.;.;.;.;.;.;.;.r a 2 i u ;.;.;.;.;.;.;.;.;.;.;.;.;.;.;.;.",
";.;.;.;.;.;.;.;.;.;.;.;.;.;.;.;.;.;.;.;.;.;.;.;.;.;.;.;.;.;.;.;.;.;.;.;.;.;.;.;.;.;.;.;.;.;.;.;.;.;.< d ;.u s ;.;.;.;.;.;.;.;.;.;.;.;.;.;.;.;.;.",
";.;.;.;.;.;.;.;.;.;.;.;.;.;.;.;.;.;.;.;.;.;.;.;.;.;.;.;.;.;.;.;.;.;.;.;.;.;.;.;.;.;.;.;.;.;.;.;.;.;.u ;.y d ;.;.;.;.;.;.;.;.;.;.;.;.;.;.;.;.;.;.",
";.;.;.;.;.;.;.;.;.;.;.;.;.;.;.;.;.;.;.;.;.;.;.;.;.;.;.;.;.;.;.;.;.;.;.;.;.;.;.;.;.;.;.;.;.;.;.;.;.;.i ;.t ;.;.;.;.;.;.;.;.;.;.;.;.;.;.;.;.;.;.;.",
";.;.;.;.;.;.;.;.;.;.;.;.;.;.;.;.;.;.;.;.;.;.;.;.;.;.;.;.;.;.;.;.;.;.;.;.;.;.;.;.;.;.;.;.;.;.;.;.;.;.s ;.t ;.;.;.;.;.;.;.;.;.;.;.;.;.;.;.;.;.;.;.",
";.;.;.;.;.;.;.;.;.;.;.;.;.;.;.;.;.;.;.;.;.;.;.;.;.;.;.;.;.;.;.;.;.;.;.;.;.;.;.;.;.;.;.;.;.;.;.;.;.;.f ;.y ;.;.;.;.;.;.;.;.;.;.;.;.;.;.;.;.;.;.;.",
";.;.;.;.;.;.;.;.;.;.;.;.;.;.;.;.;.;.;.;.;.;.;.;.;.;.;.;.;.;.;.;.;.;.;.;.;.;.;.;.;.;.;.;.;.;.;.;.;.;.y y y ;.;.;.;.;.;.;.;.;.;.;.;.;.;.;.;.+ ;.;.",
";.;.;.;.;.;.;.;.;.;.;.;.;.;.;.;.;.;.;.;.;.;.;.;.;.;.;.;.;.;.;.;.;.;.;.;.;.;.;.;.;.;.;.;.;.;.;.;.;.;.< s t s ;.;.;.;.;.;.;.;.;.;.;.;.;.1 e % ;.;.",
";.;.;.;.;.;.;.;.;.;.;.;.;.;.;.;.;.;.;.;.;.;.;.;.;.;.;.;.;.;.;.;.;.;.;.;.;.;.;.;.;.;.;.;.;.;.;.;.;.;.;.y y u ;.;.;.;.;.;.;.;.;.;.;.;.;.u e @ ;.;.",
";.;.;.;.;.;.;.;.;.;.;.;.;.;.;.;.;.;.;.;.;.;.;.;.;.;.;.;.;.;.;.;.;.;.;.;.;.;.;.;.;.;.;.;.;.;.;.;.;.;.;.< y i s ;.;.;.;.;.;.;.;.;.;.;.t i u + ;.;.",
";.;.;.;.;.;.;.;.;.;.;.;.;.;.;.;.;.;.;.;.;.;.;.;.;.;.;.;.;.;.;.;.;.;.;.;.;.;.;.;.;.;.;.;.;.;.;.;.;.;.;.;.4 y d ;.;.;.;.;.;.;.;.;.;.4 y t 4 ;.;.;.",
";.;.;.;.;.;.;.;.;.;.;.;.;.;.;.;.;.;.;.;.;.;.;.;.;.;.;.;.;.;.;.;.;.;.;.;.;.;.;.;.;.;.;.;.;.;.;.;.;.;.;.;.;.t y d ;.;.;.;.;.;.;.4 t 4 < 2 ;.;.;.;.",
";.;.;.;.;.;.;.;.;.;.;.;.;.;.;.;.;.;.;.;.;.;.;.;.;.;.;.;.;.;.;.;.;.;.;.;.;.;.;.;.;.;.;.;.;.;.;.;.;.;.;.;.;.0 4 i i ;.;.;.1 1 4 4 < < ;.;.;.;.;.;.",
";.;.;.;.;.;.;.;.;.;.;.;.;.;.;.;.;.;.;.;.;.;.;.;.;.;.;.;.;.;.;.;.;.;.;.;.;.;.;.;.;.;.;.;.;.;.;.;.;.;.;.;.;.H w < y 2 < < 1 < < ;.;.;.;.;.;.;.;.;.",
";.;.;.;.;.;.;.;.;.;.;.;.;.;.;.;.;.;.;.;.;.;.;.;.;.;.;.;.;.;.;.;.;.;.;.: 8 8 8 8 9 7 ;.;.;.;.;.;.;.;.;.;.;.F F M < < < < ;.;.;.;.;.;.;.;.;.< % ;.",
";.;.;.;.;.;.;.;.;.;.;.;.;.;.;.;.c N B b b b ;.;.;.;.;.;.;.;.;.;.l j j j 9 j 8 9 8 j ^ #.o.[ ' ;.;.;.;.;.;.H T K 4 4 e < % # ;.;.;.;.;.4 < 4 ;.;.",
";.;.;.;.;.;.;.;.;.;.;.;.;.z m D S Z Z Z D J G J J K G Z Z V S m x j 9 8 9 8 9 9 j j R #.+.+.#.#.#.#.#.#.$...L _ z 6 6 O ;.2 1 < 4 4 4 < r p ;.;.",
";.;.;.;.;.;.;.;.;.;.;.X.S x l j 9 9 9 l l x l l l x x x x x l 9 8 j 8 j 8 j 8 9 j 8 m +.+.` ..#.@.#.#.#.#.$.[ x - 9 c 9 ;.;.;.4 y y p g d 2 ;.;.",
";.;.;.;.;.;.;.;.;.;.-. .z 7 8 9 j 9 9 9 9 8 8 9 8 9 9 9 9 8 9 9 9 8 j 8 j 8 j 8 8 j l _ +...X.#.#.#.#.@.#.#.#.S : q 0 v 7 > ;.;.;.a d g d ;.;.;.",
";.;.;.;.;.;.;.;.;.#.=.K 7 9 9 9 9 9 9 9 9 9 9 9 9 9 9 9 9 9 9 9 9 j 8 j 8 j 8 j 8 j x [ #.#.+.@.#.#.@.#.#.#. .n 9 j v j 7 7 6 ;.;.;.;.u u ;.;.;.",
";.;.;.;.;.;.;.;.;.*.$.V 7 9 9 9 9 9 9 9 9 9 9 9 9 9 9 9 9 9 9 9 9 8 j 8 j 8 j 8 j j l ) #.#.#.#.@.#.#.@.#.+./ x 9 9 8 j 7 8 8 6 ;.;.;.;.;.;.;.;.",
";.;.;.;.;.;.;.;.;...] v 8 j 8 j 8 7 > > 9 9 9 9 9 8 j 8 j j 8 j 8 j 8 8 j 8 j 8 j 8 j J +.+.+.+.#.+.+.+.+.[ R l 8 8 j j 8 j j 6 * ;.;.;.;.;.;.;.",
";.;.;.;.;.;.;.;.;.;.Q l 8 8 j 8 8 > : > 7 9 9 9 9 j 8 j 8 8 j 8 j j 8 j 8 j 8 j 8 j 8 m ) #.#...+.+.+.[ [ +._ n 8 7 > > 6 7 7 : * 5 ;.;.;.;.;.;.",
";.;.;.;.;.;.;.;.;.;.( j j j 8 8 j 9 > ; > 9 9 9 9 8 j 8 j j 8 j 8 8 j 8 j j 8 8 j j j m R &.#.+.o.| [ [ +.#.+.^ x *     . X o X ; E ;.;.;.;.;.;.",
";.;.;.;.;.;.;.;.;.;.' n 8 8 j 8 j j j > : 8 8 9 9 j 8 8 j 8 j 8 j j 8 j 8 8 8 j 8 j l G / $.+.+._ ' O.+.#. .! ;.;.;.;.;.;.;., N A X.;.;.;.;.;.;.",
";.;.;.;.;.;.;.;.;.;.[ U 7 9 8 j j 8 9 > : 8 7 9 9 8 j 8 j j 8 j 8 8 l j 8 j j > l x P ) +.[ _ | | #.+. .] ;.;.;.;.;.;.;.;.;.;.&.+.;.;.;.;.;.;.;.",
";.;.;.;.;.;.;.;.;.;.R W j 9 9 8 8 > 8 > : 9 8 9 8 j 8 j 8 8 j 8 8 8 > 8 8 > l v P ) +.+.) S Q  .@.+.+.~ ;.;.;.;.;.;.;.;.;.;.;.;.;.;.;.;.;.;.;.;.",
";.;.;.;.;.;.;.;.;.;.j K z 8 9 9 9 7 > 7 : 9 7 l l > > > j j j v S P Y W Q / ) { +.+.) J x U ..@.@.+.| ;.;.;.;.;.;.;.;.;.;.;.;.;.;.;.;.;.;.;.;.;.",
";.;.;.;.;.;.;.;.;.;.v Z 6 8 9 9 9 7 > > : 9 ) +.+.+./ K v 7 j v S Y / ) ) _ _ ^ J v l j x +.#.#.#.+.;.;.;.;.;.;.;.;.;.;.;.;.;.;.;.;.;.;.;.;.;.;.",
";.;.;.;.;.;.;.;.;.9 S P G j 8 8 7 : ; ; - ~  .+.&.*.*.#.O.[ E C j 9 l 8 8 j 9 9 8 9 j 9 9 n ] #.@.;.;.;.;.;.;.;.;.;.;.;.;.;.;.;.;.;.;.;.;.;.;.;.",
";.;.;.;.;.;.;.;.7 m H G n 7 ; j 8 > > : ;.;.! ] ( ( | ..| [ |  .[ / W U G B 9 , = - ; 6 6 8 7 V z ;.;.;.;.;.;.;.;.;.;.;.;.;.;.;.;.;.;.;.;.;.;.;.",
";.;.;.;.;.;.;.z S P G v 7 = ; 9 9 j 8 : ;.;.;.;.;.;.;.;.;.;.;.;.;.;.;.;.;.;.& = 6 = & = - ; 6 7 7 7 : ;.;.;.;.;.;.;.;.;.;.;.;.;.;.;.;.;.;.;.;.;.",
";.;.;.;.A V V G S n j : ;.;.7 9 9 j 8 ;.;.;.;.;.;.;.;.;.;.;.;.;.;.;.;.;.;.;.= : 6 ;.;.;.;.;.; ; : 6 8 7 ;.;.;.;.;.;.;.;.;.;.;.;.;.;.;.;.;.;.;.;.",
";.;.;.;.I G b z 9 ;.;.;.;.> 9 9 j 8 : ;.;.;.;.;.;.;.;.;.;.;.;.;.;.;.;.;.;.;.- 7 6 ;.;.;.;.;.;.;.;.;.6 7 > ;.;.;.;.;.;.;.;.;.;.;.;.;.;.;.;.;.;.;.",
";.;.;.;.z 7 ;.;.;.;.;.;.: 8 9 8 > ;.;.;.;.;.;.;.;.;.;.;.;.;.;.;.;.;.;.;.;.;.; 8 ;.;.;.;.;.;.;.;.;.;.: : ;.;.;.;.;.;.;.;.;.;.;.;.;.;.;.;.;.;.;.;.",
";.;.;.7 7 ;.;.;.;.;.;.;.8 j ; & ;.;.;.;.;.;.;.;.;.;.;.;.;.;.;.;.;.;.;.;.;.;.; 8 ;.;.;.;.;.;.;.;.;.;.: 8 ;.;.;.;.;.;.;.;.;.;.;.;.;.;.;.;.;.;.;.;.",
";.;.;.7 6 ;.;.;.;.;.;.;.: 9 ;.;.;.;.;.;.;.;.;.;.;.;.;.;.;.;.;.;.;.;.;.;.;.;.; 7 ;.;.;.;.;.;.;.;.;.;.6 7 ;.;.;.;.;.;.;.;.;.;.;.;.;.;.;.;.;.;.;.;.",
";.;., 8 ;.;.;.;.;.;.;.;.= 8 ;.;.;.;.;.;.;.;.;.;.;.;.;.;.;.;.;.;.;.;.;.;.;.;.- : ;.;.;.;.;.;.;.;.;.;.6 6 ;.;.;.;.;.;.;.;.;.;.;.;.;.;.;.;.;.;.;.;.",
";.;.7 8 ;.;.;.;.;.;.;.;.;.9 : ;.;.;.;.;.;.;.;.;.;.;.;.;.;.;.;.;.;.;.;.;.;.;.;.6 ;.;.;.;.;.;.;.;.;.;.9 ;.;.;.;.;.;.;.;.;.;.;.;.;.;.;.;.;.;.;.;.;.",
";.;.8 6 ;.;.;.;.;.;.;.;.;.7 6 ;.;.;.;.;.;.;.;.;.;.;.;.;.;.;.;.;.;.;.;.;.;.;.;.6 ;.;.;.;.;.;.;.;.;.;.8 ;.;.;.;.;.;.;.;.;.;.;.;.;.;.;.;.;.;.;.;.;.",
";.6 8 5 ;.;.;.;.;.;.;.;.;.6 8 ;.;.;.;.;.;.;.;.;.;.;.;.;.;.;.;.;.;.;.;.;.;.;.;.6 ;.;.;.;.;.;.;.;.;.> j : ;.;.;.;.;.;.;.;.;.;.;.;.;.;.;.;.;.;.;.;.",
";.L j : ;.;.;.;.;.;.;.;.;.;.9 : ;.;.;.;.;.;.;.;.;.;.;.;.;.;.;.;.;.;.;.;.;.;.;.8 ;.;.;.;.;.;.;.;.;.~ Q R ;.;.;.;.;.;.;.;.;.;.;.;.;.;.;.;.;.;.;.;.",
";.;.X.[ ;.;.;.;.;.;.;.;.;.;.7 8 ;.;.;.;.;.;.;.;.;.;.;.;.;.;.;.;.;.;.;.;.;.;.k x : ;.;.;.;.;.;.;.;.;.P C ;.;.;.;.;.;.;.;.;.;.;.;.;.;.;.;.;.;.;.;.",
";.;.b I V ;.;.;.;.;.;.;.;.;.N v z ;.;.;.;.;.;.;.;.;.;.;.;.;.;.;.;.;.;.;.;.;.L ^ F ;.;.;.;.;.;.;.;.;.Z Z ;.;.;.;.;.;.;.;.;.;.;.;.;.;.;.;.;.;.;.;.",
";.;.;.m v ;.;.;.;.;.;.;.;.;.;.' ( Q ;.;.;.;.;.;.;.;.;.;.;.;.;.;.;.;.;.;.;.;.;.( ^ ;.;.;.;.;.;.;.;.;.;.;.;.;.;.;.;.;.;.;.;.;.;.;.;.;.;.;.;.;.;.;.",
";.;.;.;.;.;.;.;.;.;.;.;.;.;.;.;.j Z ;.;.;.;.;.;.;.;.;.;.;.;.;.;.;.;.;.;.;.;.;.;.S k ;.;.;.;.;.;.;.;.;.;.;.;.;.;.;.;.;.;.;.;.;.;.;.;.;.;.;.;.;.;."
};
