/* XPM */
/* -copyright- 
 */
XPM_TYPE *snow06_xpm[] = {
/* columns rows colors chars-per-pixel */
"6 7 2 1 ",
"  c None",
". c black",
/* pixels */
"  .. .",
" .... ",
" . ...",
"..  . ",
".. ...",
"... . ",
" ...  "
};
