/* XPM */
XPM_TYPE *snow04_xpm[] = {
/* columns rows colors chars-per-pixel */
"7 7 2 1 ",
"  c none",
". c black",
/* pixels */
"  ... .",
" ... . ",
".. ....",
" .. . .",
".... ..",
" . ... ",
"  ...  "
};
