#define snow02_width 8
#define snow02_height 9
static unsigned char snow02_bits[] = {
   0x31, 0xfa, 0x2c, 0x7c, 0xf6, 0x5f, 0x74, 0xc0, 0x80};
