#define snow00_width 3
#define snow00_height 3
static unsigned char snow00_bits[] = {
   0x03, 0x05, 0x06};
