#define snow06_width 6
#define snow06_height 7
static unsigned char snow06_bits[] = {
   0x2c, 0x1e, 0x3a, 0x13, 0x3b, 0x17, 0x0e};
