/* XPM */
XPM_TYPE *snow02_xpm[] = {
/* columns rows colors chars-per-pixel */
"8 9 2 1 ",
"  c none",
". c black",
/* pixels */
".   ..  ",
" . .....",
"  .. .  ",
"  ..... ",
" .. ....",
"..... . ",
"  . ... ",
"      ..",
"       ."
};
