#define snow05_width 9
#define snow05_height 8
static unsigned char snow05_bits[] = {
   0x60, 0x00, 0x50, 0x01, 0x68, 0x00, 0xf5, 0x00, 0x6e, 0x00, 0x54, 0x00,
   0x5b, 0x00, 0x14, 0x00};
