#define snow04_width 7
#define snow04_height 7
static unsigned char snow04_bits[] = {
   0x5c, 0x2e, 0x7b, 0x56, 0x6f, 0x3a, 0x1c};
