#define snow01_width 9
#define snow01_height 8
static unsigned char snow01_bits[] = {
   0x97, 0x00, 0x3e, 0x00, 0xf7, 0x00, 0xfe, 0x01, 0x54, 0x00, 0xfc, 0x01,
   0x5c, 0x01, 0x80, 0x01};
