#define snow03_width 9
#define snow03_height 8
static unsigned char snow03_bits[] = {
   0x5c, 0x00, 0xfe, 0x00, 0xed, 0x01, 0x5e, 0x00, 0xf7, 0x00, 0xd6, 0x00,
   0x74, 0x00, 0x38, 0x00};
