#define snow27_width 8
#define snow27_height 8
static unsigned char snow27_bits[] = {
   0x18, 0x7f, 0x22, 0x61, 0xcd, 0x45, 0x32, 0x1c};
