#define snow25_width 6
#define snow25_height 7
static unsigned char snow25_bits[] = {
   0x02, 0x14, 0x2d, 0x13, 0x3c, 0x0a, 0x01};
