#define snow26_width 4
#define snow26_height 4
static unsigned char snow26_bits[] = {
   0x08, 0x0b, 0x0e, 0x06};
