/* XPM */
/* -copyright-
#-#
#-# xsnow: let it snow on your desktop
#-# Copyright (C) 1984,1988,1990,1993-1995,2000-2001 Rick Jansen
#-#               2019,2020 Willem Vermin
#-# 
#-# This program is free software: you can redistribute it and/or modify
#-# it under the terms of the GNU General Public License as published by
#-# the Free Software Foundation, either version 3 of the License, or
#-# (at your option) any later version.
#-#
#-# This program is distributed in the hope that it will be useful,
#-# but WITHOUT ANY WARRANTY; without even the implied warranty of
#-# MERCHANTABILITY or FITNESS FOR A PARTICULAR PURPOSE.  See the
#-# GNU General Public License for more details.
#-# 
#-# You should have received a copy of the GNU General Public License
#-# along with this program.  If not, see <http://www.gnu.org/licenses/>.
#-#
*/
const char *snowtree_xpm[] = {
/* columns rows colors chars-per-pixel */
"55 79 203 2 ",
"nn c None",
"bb c #6b2503",
"gg c #006400",
"   c #15213C",
".  c #323947",
"X  c #2C3C5B",
"o  c #313C56",
"O  c #2D405E",
"+  c #344057",
"@  c #2C4364",
"#  c #334463",
"$  c #394B68",
"%  c #3D536E",
"&  c #3C5274",
"*  c #3F5479",
"=  c #414F65",
"-  c #465668",
";  c #43546C",
":  c #425474",
">  c #495070",
",  c #41577A",
"<  c #455B7C",
"1  c #4B5C7C",
"2  c #505D70",
"3  c #526375",
"4  c #53657C",
"5  c #295B8E",
"6  c #325C8E",
"7  c #265B91",
"8  c #2C5E93",
"9  c #335E91",
"0  c #3D618A",
"q  c #2E6195",
"w  c #2D649D",
"e  c #366294",
"r  c #3A6495",
"t  c #33669D",
"y  c #3F6799",
"u  c #36699E",
"i  c #396A9F",
"p  c #2D66A1",
"a  c #2E6BA7",
"s  c #2769A8",
"d  c #2E6BA8",
"f  c #356AA3",
"g  c #396CA3",
"h  c #336DA9",
"j  c #386FA9",
"k  c #3E71A6",
"l  c #3570AA",
"z  c #3B71AB",
"x  c #475D81",
"c  c #4B6285",
"v  c #43638C",
"b  c #4E6589",
"n  c #4E698E",
"m  c #516683",
"M  c #566987",
"N  c #526A8E",
"B  c #596E8D",
"V  c #5D708B",
"C  c #436694",
"Z  c #456695",
"A  c #436996",
"S  c #4C6A93",
"D  c #446B9A",
"F  c #4B6E9B",
"G  c #546D93",
"H  c #5A6F90",
"J  c #506D99",
"K  c #4A709C",
"L  c #577095",
"P  c #5C7395",
"I  c #52739C",
"U  c #5C749A",
"Y  c #5D799E",
"T  c #63738D",
"R  c #637694",
"E  c #647894",
"W  c #6D7D94",
"Q  c #61769A",
"!  c #647B9D",
"~  c #6C7E9C",
"^  c #4571A1",
"/  c #4D73A1",
"(  c #5676A1",
")  c #5479A5",
"_  c #5C7BA4",
"`  c #5B7DAA",
"'  c #647DA3",
"]  c #697EA2",
"[  c #6C819F",
"{  c #73839D",
"}  c #5B81AC",
"|  c #5787BE",
" . c #6681A5",
".. c #6C83A5",
"X. c #6482AB",
"o. c #6C85AA",
"O. c #6D89AD",
"+. c #7186A4",
"@. c #7489A5",
"#. c #7187A9",
"$. c #738AAD",
"%. c #798DAC",
"&. c #7B91AF",
"*. c #6287B2",
"=. c #6D8AB2",
"-. c #748DB2",
";. c #798FB2",
":. c #6E90BB",
">. c #7691B5",
",. c #7B93B4",
"<. c #7491B9",
"1. c #7B95BA",
"2. c #7E99BD",
"3. c #5C8DC2",
"4. c #648FC3",
"5. c #6491C3",
"6. c #6D96C5",
"7. c #6E9ACA",
"8. c #7097C5",
"9. c #779AC3",
"0. c #7D9BC2",
"q. c #759DCC",
"w. c #7A9FCD",
"e. c #76A1CF",
"r. c #7CA1CE",
"t. c #7CA3D1",
"y. c #8495AD",
"u. c #8195B3",
"i. c #8599B6",
"p. c #8A9CB6",
"a. c #8196B9",
"s. c #839ABD",
"d. c #899EBD",
"f. c #8DA1BE",
"g. c #91A1BA",
"h. c #A2ACBF",
"j. c #849DC2",
"k. c #899FC1",
"l. c #87A1C4",
"z. c #8CA3C5",
"x. c #8FA8C7",
"c. c #83A4CD",
"v. c #8DA6C9",
"b. c #8DA9CD",
"n. c #92A6C4",
"m. c #94A9C7",
"M. c #9AACC6",
"N. c #91A7C9",
"B. c #94ABCC",
"V. c #9AAECD",
"C. c #9DB1CF",
"Z. c #84A6D1",
"A. c #89A7D0",
"S. c #86AAD3",
"D. c #8CABD3",
"F. c #8DAFD8",
"G. c #94AED2",
"H. c #99AED1",
"J. c #8FB1D8",
"K. c #95B1D4",
"L. c #9DB3D3",
"P. c #94B3DA",
"I. c #9AB6DA",
"U. c #9BB8DB",
"Y. c #A9B4C7",
"T. c #A2B3CE",
"R. c #A2B6D4",
"E. c #A5B9D6",
"W. c #AABAD5",
"Q. c #A1B7D8",
"!. c #A5BADA",
"~. c #AABDDB",
"^. c #B0BED8",
"/. c #AEC1DD",
"(. c #B7C3D5",
"). c #B2C3DE",
"_. c #B9C7DE",
"`. c #BCCADE",
"'. c #AFC2E0",
"]. c #B5C6E1",
"[. c #B8C7E3",
"{. c #B7C8E2",
"}. c #BBCBE4",
"|. c #BFD0E7",
" X c #C2C9D9",
".X c #C1CEE5",
"XX c #C0CFE8",
"oX c #C4D1E6",
"OX c #CAD5E6",
"+X c #C5D3E9",
"@X c #CAD6EB",
"#X c #CED9EC",
"$X c #D0D8E8",
"%X c #D3DBEC",
"&X c #D9DFED",
"*X c #D7E0ED",
"=X c #DBE1EE",
"-X c #DEE4F0",
";X c #E0E4EF",
":X c #E1E5F0",
/* pixels */
"nnnnnnnnnnnnnnnnnnnnnnnnnnnnnnnnnnnnnnnnnnnnnnnn%Xnnnnnnnnnnnnnnnnnnnnnnnnnnnnnnnnnnnnnnnnnnnnnnnnnnnnnnnnnnnn",
"nnnnnnnnnnnnnnnnnnnnnnnnnnnnnnnnnnnnnnnnnnnnnn%X%X#Xnnnnnnnnnnnnnnnnnnnnnnnnnnnnnnnnnnnnnnnnnnnnnnnnnnnnnnnnnn",
"nnnnnnnnnnnnnnnnnnnnnnnnnnnnnnnnnnnnnnnnnnnnnn%X@X@X.X.X$Xnnnnnnnnnnnnnnnnnnnnnnnnnnnnnnnnnnnnnnnnnnnnnnnnnnnn",
"nnnnnnnnnnnnnnnnnnnnnnnnnnnnnnnnnnnnnnnnnnnnnn@X!.|..X.XoX%Xnnnnnnnnnnnnnnnnnnnnnnnnnnnnnnnnnnnnnnnnnnnnnnnnnn",
"nnnnnnnnnnnnnnnnnnnnnnnnnnnnnnnnnnnnnnnnnnnnnn%X[.^.[.T..Xnnnnnnnnnnnnnnnnnnnnnnnnnnnnnnnnnnnnnnnnnnnnnnnnnnnn",
"nnnnnnnnnnnnnnnnnnnnnnnnnnnnnnnnnnnnnnnnnnnnnnnn.XR.[..Xnnnnnnnnnnnnnnnnnnnnnnnnnnnnnnnnnnnnnnnnnnnnnnnnnnnnnn",
"nnnnnnnnnnnnnnnnnnnnnnnnnnnnnnnnnnnnnnnnnnnnnnnn[.'.[.OX^.h.nnnnnnnnnnnnnnnnnnnnnnnnnnnnnnnnnnnnnnnnnnnnnnnnnn",
"nnnnnnnnnnnnnnnnnnnnnnnnnnnnnnnnnnnnnnnnnnnnnnXX[.XX[.[.^. Xnnnnnnnnnnnnnnnnnnnnnnnnnnnnnnnnnnnnnnnnnnnnnnnnnn",
"nnnnnnnnnnnnnnnnnnnnnnnnnnnnnnnnnnnnnnnnnnnnoX^.[.].W.{.OXnnnnnnnnnnnnnnnnnnnnnnnnnnnnnnnnnnnnnnnnnnnnnnnnnnnn",
"nnnnnnnnnnnnnnnnnnnnnnnnnnnnnnnnnnnnnnnnnnnn.X^.}.~.[.}.XXnnnnnnnnnnnnnnnnnnnnnnnnnnnnnnnnnnnnnnnnnnnnnnnnnnnn",
"nnnnnnnnnnnnnnnnnnnnnnnnnnnnnnnnnnnnnnnnnn@XXXXX.X}.XXXXOXnnnnnnnnnnnnnnnnnnnnnnnnnnnnnnnnnnnnnnnnnnnnnnnnnnnn",
"nnnnnnnnnnnnnnnnnnnnnnnnnnnnnnnnnnnnnnnnnn'.}..X}..X.XXX+X&Xnnnnnnnnnnnnnnnnnnnnnnnnnnnnnnnnnnnnnnnnnnnnnnnnnn",
"nnnnnnnnnnnnnnnnnnnnnnnnnnnnnnnnnnnnnnnnoXW.T.].^.].{..XXXnnnnnnnnnnnnnnnnoX[..XXXXXnnnnnnnnnnnnnnnnnnnnnnnnnn",
"nnnnnnnnnnnnnnnnnnnnnnnnnnnnnnnnnnnnnnOX.X).H.N.n.R.^.XXXXXXnnnnnnnnnnnnXX[.[.].XXXXXXnnnnnnnnnnnnnnnnnnnnnnnn",
"nnnnnnnnnnnnnnnnnnnnnnnnnnnnnnnnnnnn+X.X{.E.n.s.,.R..X.XXXXX.XnnnnnnnnXX[.^.~.^.XXXXXXnnnnnnnnnnnnnnnnnnnnnnnn",
"nnnnnnnnnnnnnnnnnnnnnnnnnn@XnnnnnnXX).).W.R.B.N.v.W.R.W.W.XX}.}.nn[.}.[.).~.H.H.).).XXnnnnnnnnnnnnnnnnnnnnnnnn",
"nnnnnnnnnnnnnnnnnnnnnnnn#X+X|.+X}.}.!.B.L.v.V.^.a.H ggj./.[.[.~.R.[.XX[.'.^.Q.!.'.[.nnnnnnnnnnnnnnnnnnnnnnnnnn",
"nnnnnnnnnnnnnnnnnnnnnn#X@X|.}.{.}.{.].H.o.-.!.H.;.' ggggR.R.~.H.R.[.XXXX[.[.XX^.^.XXnnnnnnnnnnnnnnnnnnnnnnnnnn",
"nnnnnnnnnnnnnnnnnnnnnn#X+X|.}.{.).).~.H.<.N.'.R.N.1.] ggggggQ.H.n.[.XX[.[.XX[.'.'.nnnnnnnnnnnnnnnnnnnnnnnnnnnn",
"nnnnnnnnnnnnnnnnnnnnnnnn|.|.{.).E.L.A.k.j.gg!.ggN.j.bb-.N.N.B.d.Q.[.[.[.[.XX[.[.^.XXnnnnnnnnnnnnnnnnnnnnnnnnnn",
"nnnnnnnnnnnnnnnnnnnn@XoX}.{.[.~.V.H.N.B.H.ggggggj.] bb-.k.j.a.W.{.[.'.^.^.XXXX[.'.OXnnnnnnnnnnnnnnnnnnnnnnnnnn",
"nnnnnnnnnnnnnnnnnn@XoX}.].{.[.^.H.L.H.E.).R.Q.N.bb9.bbj.j.;.k.H.^.].~.Q.N.[.XX^.XXnnnnnnnnnnnnnnnnnnnnnnnnnnnn",
"nnnnnnnnnnnnnnnnnnnn}.}.].{./.Q.Q.!.E.[.).^.R.H.j.` > ] J -.d.R.^.].!.N.^.^.[.[.nnnnnnnnnnnnnnnnnnnnnnnnnnnnnn",
"nnnnnnnnnnnnnnnnnn}.}.}.{.).~.~.^.gggg~.).Q.L.B.N.] ] ' ] ' ;.k.).H.N.R.^.[.[.nnnnnnnnnnnnnnnnnnnnnnnnnnnnnnnn",
"nnnnnnnnnnnnnnnn|.|.{._.]./.~.Q.ggggggggR.H.B.k.8.> H -.1.1.<.a.N.;.;.1.~.].[.nnnnnnnnnnnnnnnnnnnnnnnnnnnnnnnn",
"nnnnnnnnnnnnnn|.|.|._.)./././.~.W.N.bbbbbbbbB.k.' X G =.0.k.j.0.<.<.j.1.B.).[.XXnn%Xnnnnnnnnnnnnnnnnnnnnnnnnnn",
"nnnnnnnnnnnnnn|.{.{./.E.!./.~.~.k.N.] bbbbbbG.k.G # S -.j.j.j.k.j.nnk.j.a.].[.[.XX[.[.nnnnnnnnnnnnnnnnnnnnnnnn",
"nnnnnnnnnnnnnn|.{.{.!.m.L.~.~.!.-.] N.nnnnH.G.N.v.X N <.j.k.k.G.H.nnnnB.v.].'.'.^.[.[.@Xnnnnnnnnnnnnnnnnnnnnnn",
"nnnnnnnnnnnnnnnn|.}./.U.E.~.'.R.H.nnnnH.nnL.H.H.H., x -.b.k.A.k.N.j.;.' j.Q.~.~.Q.^.[.XXnnnnnnnnnnnnnnnnnnnnnn",
"nnnnnnnnnnnnnn|.}._././.E.W.[.!.H.nnE.^.n.~.R.Q.H.H.! U #.-.1.j.N.j.k.] J N.N.H.Q.Q.[.XX@XnnOXnnnnnnnnnnnnnnnn",
"nnnnnnnnnnnnnn|.|./.C.@.,./.^.nnnnR.E.H.k.E.!.R.1.$.< n ' o.] ] j.j.B.m.' =.] k.H.H.^.^.XX[.XXXXnnnnnnnnnnnnnn",
"nnnnnnnnnnnnnnnnL.[ &.V O.T.H.nn).H.~.R.).).W.] x O   * -.j.=.;.] -.k.V.a.s.k.N.R.Q.^.H.^. X[.XXXXXXXXnnnnnnnn",
"nnnnnnnnnnnnnnnnnnT 1.#.@.R.nnnns.,.E.R.{._.Q.;.! ;.g.: <.j.gg-.c G <.j.v.N.H.H.W.~.!.R.).[.].[.XX}.XXOXnnnnnn",
"nnnnnnnnnnnnnnnnnnnnnnnnnnnnnn,.f.L./.L.).{.{.~.^.].d.X O.ggggggG a.j.V.R.R.H.~.^.~.Q.H.).[.).[.}.[.}.oXnnnnnn",
"nnnnnnnnnnnnnnnnnnnnnnR.B.l././.{.}.{.V.g.{.{.].].].W.R gggggggg] #.k.H.N.N.n.R.W.].m.B.~.!.'.[.ggggXXXXnnnnnn",
"nnnnnnnnnnnnnnnn`.(.R.gggggggggggg{._.).i.U.].^.~.~.^.%.ggggggggP , G gg] 1.V.R.R.).nn=.=.v./.ggggggXXXXoXnnnn",
"nnnnnnnnnnOX|.W.Y.C.x.ggz.~.gggggg}._._.!.C.^.].L.'.n.#.ggbbN x 1 H ' ggb v.B.[.{.{.].H.a.B.bbbbbb[.}.XXXXnnnn",
"nnnnnnnn#X+X`.L.H.x.gggggg{.).{.{.{.E.s.L.C.].[.L.z.~ ggbb' N x H k.N.ggQ <.B.!.R.~.[.].].).].}.[.}.}.XXXXnnnn",
"nn#X#X@X+X|.{.!.x.l. .$.bbbbbbbb!.!.s. .-.x.T.~.1.s.ggB.1.bbG x =.k.-.j.k.<.1.R.k.a.^.].].[.].{.{.[.}.XXnnnnnn",
"*X#X@X+X}.}._.~.B.2. .P ,.N.C.bbz.W.z.>. ...;.z.s.,.bbbbbb' m U bbbbbba.G.v.j.j.H.R.).^.!.E.~.).{..X}.XXXXnnnn",
"nn#XOX|.`.}./.E.T.d.o.Y V.E.x.z.2.s.d.,.j.1.1.U G #.! $ X X , ! H.].'.~.Q.~.Q.N.k.R.T.k.a.j.%.H.~.}.XX}..XOXnn",
"nnOX|.|.}.].M.{ @...E #.x.~.b.f.d.a.s.k.s.o.O.L G ' o.@ @ x U #.H.Q./.'.~.~.L.Q.~.H.;.a.s.j.] 1.j.~.}..X.XOXoX",
"nnOX|.).}./.s.E E U ..>.i.f.x.l.nnd.-.1.bbbbo.1.1.1.G @ x ' ' $.z.s.~.^.].^.!.~.W.~.H.H.H.m.E.W.R.H.[.].}.XX.X",
"nnnn}.`.]./.B.s.! B 2.#.,.W.nnnnnn@.#.z.l.bbbbv.v.G.a.-.H ' 1.1.s.H.nnnnnnnnnnnnnnnn).).^.~.].[.}.[.[.].[.nnnn",
"nnnnnn`.{.).C.v.$.#.k.s.T.nnnnnn{ 1.d.l.z.n.bbbbL.L.B.K...< ' ;.n.R.R.R.~.nnnn~.'.n.~.).).].].[.W.[.XX.Xnnnnnn",
"nnnnnnOXT./.n.z.k.j.z.T.nnnnY.u.n.m.z.L.N.V.C.bbbbL.H.L.] , x ' #.R.B.#.V.nnnnnn).).'.).].].).].].}.[.[..Xnnnn",
"nnnnnnnnnn(.y.&.B.z.B./.nnW.n.R.V.C.L.n.,.i./.L.L.].L.B.~ gggggg-.1.Q ~ V.nnnnV.k.W.H.~.].].'.[.XX}.[.[.nnnnnn",
"nnnnnnnnnnnnf.Y.E.B.(.nnnnu.n.B.!.T.E.s.V.~.).R.L.{./.x.2 gggg1.! $.O.a.nnnnnnu.] m.;.Q.].~.].~.[.[.XX].nnnnnn",
"nnnnnnnnnnnn`.nnnn/.nnnny.&.x.x.g./.E.E.~.{.).{.).).{.C.bbgg' #.U -.....d.N.;.$.,.c _ j.'.Q.Q.G.~.}.}.[.nnnnnn",
"nnnnnnnnnnnnnnnnnnnnnnnnh.f.m.C./.W.W././.oX{.{.{.{.}.T.bb$ X.c -.N U -.#.v.E ! v.$.b 1.!.~.~.~.'.].nnnnnnnnnn",
"nnnnnnnnnnnnnnnnnnnnnnnnnnm.f./._.W.).|./.{.oXE.z.).{.{.g.G ! ! P m c %.i.s.[ $.k.,.H.N.D.nnnnnnQ.].nnnnnnnnnn",
"nnnnnnnnnnnnnnnnnnnnnnnnnn/.{.|.{.{._.{.{.|.}.{.).C.{.{.W.s...U N B Q ' $.a.Q.v.I.~.!.Q.!.!.nnnn~./.nn'.bbnnnn",
"nnnnnnnnnnnnnnnnnnnnnnnnnnE.E.{.{.).{.|.|.}.|.}.}.!.]./.].}.XXR.c m R ' ] o.#.1.v.H.H.!.!.nn!.!.U.'.gggg!.'.nn",
"nnnnnnnnnnnnnnnnnnnnnnnnnnR._.+X|./.).{.|.|.|.}.}.}.'./.}.}.}.~.E 1 ] %.%.] ] 1.1.1.H.!.!.!.!.!.nn!.nnbbnnnnnn",
"nnnnnnnnnnnnnnnnnnnnnnnnnnnn{.{.{.}.|.{.|.}.}.}.}.]./.}.}.}.}.[.W.~ x b ! Q ,.i.n.H -.B.~.Q.U.!.nnnnnnnnnnnnnn",
"nnnnnnnnnnnnnnnnnnnnnnnnnn/.{./._.{.{.|.}.{.}.}.}./.}.}.}.}.}.[.}.^.] b ' #.ggggbbR ] u.R.W.nnnnnnnnnnnnnnnnnn",
"nnnnnnnnnnnnnn/./.nnL.x.B.f./.R.|.|./.`././.{.~.T.R././._.}.}.].).{.V.u.+.;.ggbb;.u.+.R.M.V.R.nnnnnnnnnnnnnnnn",
"nnnnnnnnnnnnU.'./.!.G.2.2.2.b.C./.).gggg/./.).C.L.u.$././.{.}.R.).{.u.B o.$.bbU =.k.nnk.n.T.nnnnnnnnnnnnnnnnnn",
"nnnnnnnnnnnnnn'././.E.U.M.f.C.x.L././.gggg/./.U.U.{ E B./.{.|.p.B.M.E o.s.d.$.=.<.nnnnnnW.T.nnnnnnnnnnnnnnnnnn",
"nnnnnnnnnnnn/./././.E./.).L./.m.K.!.U.gggg!.U.bbbb>.T 3 W p.H.$.u.;.O.O.' s.j.k.b.nnnnnnnnnnnnnnnnnnnnnnnnnnnn",
"nnnnnnnnnnnn/.).nn/./././.G.R.K.x.B.U.I.ggggI.bbbbs.[ U M bbbbx.K.1.j.x.s.l.Q.B.n.nnnnnnnnnnnnnnnnnnnnnnnnnnnn",
"nnnnnnnnnnnn).).nn/.L./.L.b.J.K.B.G.G.J.K.b.bbbbbb<.-.1.bbbbbbB.&.B.G.K.L.U.I.nnnnnnnnnnnnnnnnnnnnnnnnnnnnnnnn",
"nnnnnnnnnnK._.nnnn/.C.L.U.b.S.S.Z.S.2.2.1.#...nn1.nnnn>.R bbbbB.9.Z.A.c.b.L.nnnnnnnnnnnnnnnnnnnnnnnnnnnnnnnnnn",
"nnnnnnnnt.S.K.D.D.U.L.S.S.t.t.t.e.<.[ ! %.,.+.#.o.<.1...+ bbbbc.0.b.Z.:.c.S.nnnnnnnnnnnnnnnnnnnnnnnnnnnnnnnnnn",
"nnnnnnnnnnr.r.e.r.e.e.r.r.e.e.e.2.&.[ $.1.>.o. .nnnn>.>.< M R m.r.e.7.e.nnnnnnnnnnnnnnnnnnnnnnnnnnnnnnnnnnnnnn",
"nnnnnnnnnnnne.7.7.7.6.6.6.e.:.0.,.&.2.#.nnnno.E m O. .f.- E Q B.9.e.q.nnnnnnnnnnnnnnnnnnnnnnnnnnnnnnnnnnnnnnnn",
"nnnnnnnnnnnnnnnnnnnnr.nnnnnnnnnnnnf.f.s.x.x.>.! $ #.>.f.V V V H.nne.nnnnnnnnnnnnnnnnnnnnnnnnnnnnnnnnnnnnnnnnnn",
"nnnnnnnnnnnnnnnnnnnnnnnnnnnnnnnnf.K.B.x.m.2.,.&.@.,.s.l.#.2 ; x.| | nnnnnnnnnnnnnnnnnnnnnnnnnnnnnnnnnnnnnnnnnn",
"nnnnnnnnnnnnnnnnnnnnnnnnnnnng.M.L.f.M.x.x.f.f.nnnnx.z.l.%.4 4 r.nnnnnnnnnnnnnnnnnnnnnnnnnnnnnnnnnnnnnnnnnnnnnn",
"nnnnnnnnnnnnnnnnnnnnnnnnnn2.C.C.m.x.f.&.2.M.x.nnnnB.1...m - V *.nnnnnnnnnnnnnnnnnnnnnnnnnnnnnnnnnnnnnnnnnnnnnn",
"nnnnnnnnnnnnnnnnnnnnnnnnnn=.x.O.2.&.*.K K } 1.L.B.x.} 1 ; E  .x.G.C.} nnnnnnnnnnnnnnnnnnnnnnnnnnnnnnnnnnnnnnnn",
"nnnnnnnnnnnnnnnnnnnnnnnnnnnnx.f.f.,.0.} *.<.:.f.O.L [ + 3 U ,.x.2.2.X.nnnnnnnnnnnnnnnnnnnnnnnnnnnnnnnnnnnnnnnn",
"nnnnnnnnnnnnnnnnnnnnnnnnnnnnnnx.Y nnO./ _ nnnnnnnnnnnn# 4 E l.nnnnnnnnnnnnnnnnnnnnnnnnnnnnnnnnnnnnnnnnnnnnnnnn",
"nnnnnnnnnnnnnnnnnnnnnnnnnnnnnnnnnnnnnnnnnnnnnnnnnnnnnnbbbb&.bb).{.nnnnnnnnnnnnnnnnnnnnnnnnnnnnnnnnnnnnnnnnnnnn",
"nnnnnnnnnnnnnnnnnnnnnnnnnnnnnnnnnnnnnnnnnnnnnnnnnnnn{ B bbbbB.nnnnnnnnnnnnnnnnnnnnnnnnnnnnnnnnnnnnnnnnnnnnnnnn",
"nnnnnnnnnnnnnnnnnnnnnnnnnnnnnnnnnnnnnnnnnnnnnnnnnnnnnno.bbbbbb/.nnnnnnnnnnnnnnnnnnnnnnnnnnnnnnnnnnnnnnnnnnnnnn",
"nnnnnnnnnnnnnnnnnnnnnnnnnnnnnnnnnnnnnnnnnnnnnnnnnnnnz.bbbbbbbbbbnnnnnnnnnnnnnnnnnnnnnnnnnnnnnnnnnnnnnnnnnnnnnn",
"nnnnnnnnnnnnnnnnnnnnnnnnnnnnnnnnnnnnnnnnnnnnnnnnnnnnnn[ bbbbB./.nnnnnnnnnnnnnnnnnnnnnnnnnnnnnnnnnnnnnnnnnnnnnn",
"nnnnnnnnnnnnnnnnnnnnnnnnnnnnnnnnnnnnnnnnnnnnnnnnnnnnnn{ bbbbbbB.nnnnnnnnnnnnnnnnnnnnnnnnnnnnnnnnnnnnnnnnnnnnnn",
};
