/* XPM */
XPM_TYPE *snow01_xpm[] = {
/* columns rows colors chars-per-pixel */
"9 8 2 1 ",
"  c none",
". c black",
/* pixels */
"... .  . ",
" .....   ",
"... .... ",
" ........",
"  . . .  ",
"  .......",
"  ... . .",
"       .."
};
