/* XPM */
static char *snow02[] = {
/* columns rows colors chars-per-pixel */
"8 8 2 1 ",
"  c None",
". c snow",
/* pixels */
"  . .   ",
"   .    ",
".  .  . ",
" .. ..  ",
".  .  . ",
"   .    ",
"  . .   ",
"        "
};
