/* XPM */
static char *starblack[] = {
/* columns rows colors chars-per-pixel */
"9 9 2 1 ",
"  c None",
". c black",
/* pixels */
".       .",
" .  .  . ",
"  . . .  ",
"   ...   ",
" ....... ",
"   ...   ",
"  . . .  ",
" .  .  . ",
".       ."
};
